<svg xmlns="http://www.w3.org/2000/svg" viewBox="0 0 1104.43 518.84"><defs><style>.cls-1{fill:none;stroke:#6d6e70;stroke-linecap:round;stroke-linejoin:round;stroke-width:0.43px;}.cls-2{fill:#6d6e70;}.cls-3{fill:#f47920;}.cls-3,.cls-4,.cls-5,.cls-6,.cls-7{fill-rule:evenodd;}.cls-4{fill:#d8671d;}.cls-5{fill:#fff;}.cls-6{fill:#f8981d;}.cls-7{fill:#ae551b;}</style></defs><title>Ресурс 3</title><g id="Слой_2" data-name="Слой 2"><g id="Layer_1" data-name="Layer 1"><path class="cls-1" d="M87,492.72l-7.39-18.9H55.76l-7.31,18.9h-7L65,433h5.82l23.38,59.69Zm-9.54-25.14-6.92-18.41c-.89-2.33-1.82-5.19-2.76-8.57a74.94,74.94,0,0,1-2.57,8.57l-7,18.41Zm116.07-29q-9.78,0-15.46,6.52T172.39,463q0,11.67,5.47,18t15.59,6.37a53.46,53.46,0,0,0,14.18-2.23v6.07a43.58,43.58,0,0,1-15.24,2.33q-13.13,0-20.25-8T165,462.94a35.73,35.73,0,0,1,3.44-16.11,24.55,24.55,0,0,1,9.92-10.64,30,30,0,0,1,15.26-3.75,37,37,0,0,1,16.34,3.4L207,441.79a31.25,31.25,0,0,0-13.5-3.18ZM269,492.72h-6.91v-28H230.74v28h-6.91V433.28h6.91v25.31h31.32V433.28H269v59.44Zm19.53,0V433.28h6.91v59.44Zm72.87,0h-7.88L321,442.84h-.33c.42,5.86.65,11.21.65,16.09v33.79h-6.38V433.28h7.8L355.15,483h.32c-.05-.73-.16-3.07-.36-7.06s-.26-6.8-.21-8.52v-34.1h6.47v59.44Zm52.69,0H380.94V433.28h33.12v6.16H387.85v19.15h24.63v6.08H387.85v21.89h26.21v6.17Zm50-15.79q0,7.85-5.69,12.24t-15.46,4.38q-10.57,0-16.26-2.73v-6.68a43.61,43.61,0,0,0,16.51,3.34q6.91,0,10.41-2.62a8.57,8.57,0,0,0,3.5-7.29,9.39,9.39,0,0,0-1.23-5,11.7,11.7,0,0,0-4.15-3.64,58.24,58.24,0,0,0-8.85-3.78q-8.29-3-11.85-7t-3.57-10.62a13.18,13.18,0,0,1,5.16-10.92q5.18-4.07,13.67-4.07a40.24,40.24,0,0,1,16.3,3.25l-2.15,6A36.71,36.71,0,0,0,446,438.61c-3.65,0-6.52.79-8.57,2.36a7.77,7.77,0,0,0-3.09,6.56,10.13,10.13,0,0,0,1.14,5.06,10.74,10.74,0,0,0,3.85,3.62,48,48,0,0,0,8.28,3.63Q457,463.18,460.5,467a14.06,14.06,0,0,1,3.53,9.92Zm48.5,15.79H479.4V433.28h33.12v6.16H486.31v19.15h24.63v6.08H486.31v21.89h26.21v6.17Z"/><path class="cls-2" d="M87,492.72l-7.39-18.9H55.76l-7.31,18.9h-7L65,433h5.82l23.38,59.69Zm-9.54-25.14-6.92-18.41c-.89-2.33-1.82-5.19-2.76-8.57a74.94,74.94,0,0,1-2.57,8.57l-7,18.41Z"/><path class="cls-2" d="M193.52,438.61q-9.78,0-15.46,6.52T172.39,463q0,11.67,5.47,18t15.59,6.37a53.46,53.46,0,0,0,14.18-2.23v6.07a43.58,43.58,0,0,1-15.24,2.33q-13.13,0-20.25-8T165,462.94a35.73,35.73,0,0,1,3.44-16.11,24.55,24.55,0,0,1,9.92-10.64,30,30,0,0,1,15.26-3.75,37,37,0,0,1,16.34,3.4L207,441.79a31.25,31.25,0,0,0-13.5-3.18Z"/><polygon class="cls-2" points="268.96 492.72 262.06 492.72 262.06 464.74 230.74 464.74 230.74 492.72 223.83 492.72 223.83 433.27 230.74 433.27 230.74 458.58 262.06 458.58 262.06 433.27 268.96 433.27 268.96 492.72 268.96 492.72"/><polygon class="cls-2" points="288.5 492.72 288.5 433.27 295.4 433.27 295.4 492.72 288.5 492.72 288.5 492.72"/><path class="cls-2" d="M361.37,492.72h-7.88L321,442.84h-.33c.42,5.86.65,11.21.65,16.09v33.79h-6.38V433.28h7.8L355.15,483h.32c-.05-.73-.16-3.07-.36-7.06s-.26-6.8-.21-8.52v-34.1h6.47v59.44Z"/><polygon class="cls-2" points="414.05 492.72 380.94 492.72 380.94 433.27 414.05 433.27 414.05 439.44 387.85 439.44 387.85 458.58 412.47 458.58 412.47 464.66 387.85 464.66 387.85 486.55 414.05 486.55 414.05 492.72 414.05 492.72"/><path class="cls-2" d="M464,476.93q0,7.85-5.69,12.24t-15.46,4.38q-10.57,0-16.26-2.73v-6.68a43.61,43.61,0,0,0,16.51,3.34q6.91,0,10.41-2.62a8.57,8.57,0,0,0,3.5-7.29,9.39,9.39,0,0,0-1.23-5,11.7,11.7,0,0,0-4.15-3.64,58.24,58.24,0,0,0-8.85-3.78q-8.29-3-11.85-7t-3.57-10.62a13.18,13.18,0,0,1,5.16-10.92q5.18-4.07,13.67-4.07a40.24,40.24,0,0,1,16.3,3.25l-2.15,6A36.71,36.71,0,0,0,446,438.61c-3.65,0-6.52.79-8.57,2.36a7.77,7.77,0,0,0-3.09,6.56,10.13,10.13,0,0,0,1.14,5.06,10.74,10.74,0,0,0,3.85,3.62,48,48,0,0,0,8.28,3.63Q457,463.18,460.5,467a14.06,14.06,0,0,1,3.53,9.92Z"/><polygon class="cls-2" points="512.52 492.72 479.4 492.72 479.4 433.27 512.52 433.27 512.52 439.44 486.31 439.44 486.31 458.58 510.94 458.58 510.94 464.66 486.31 464.66 486.31 486.55 512.52 486.55 512.52 492.72 512.52 492.72"/><path class="cls-3" d="M1074.5,115.57H595.29V518.65h479.2c16.46,0,29.93-11.17,29.93-24.83V140.4c0-13.65-13.47-24.83-29.93-24.83Z"/><polygon class="cls-4" points="617.7 115.57 1060.93 518.84 594.67 518.42 522.07 211.84 617.7 115.57 617.7 115.57"/><path class="cls-5" d="M1054.85,405.79c-.91-3.84-1.68-7.38-2.37-10.62s-1.29-6.43-1.82-9.67-1.11-6.67-1.65-10.43-1.09-8-1.71-12.91h-3.88l-.46,37a12.75,12.75,0,0,1-2.85,1.18,31.38,31.38,0,0,1-4.54.76c-1.87.19-4.27.35-7.24.42s-6.58.15-11,.15a38.39,38.39,0,0,1-9.69-.91A9.57,9.57,0,0,1,1002,397a18.21,18.21,0,0,1-2.7-8.22,104.94,104.94,0,0,1-.69-14.27V349.83a65.47,65.47,0,0,1,.42-7.12,56.76,56.76,0,0,1,1.22-6.62,33.07,33.07,0,0,1,1.79-5.45,4.36,4.36,0,0,0,.54-2.55,3.35,3.35,0,0,0-1.22-2l-5.49-4.79,48.43-5.48c1.3-.15,2-.49,2.14-1.11s-.31-1.29-1.45-2.09l-9.82-7.55a75.3,75.3,0,0,1-9.26,3c-3.5,1-7.76,1.9-12.83,2.82s-11.19,1.83-18.47,2.78-16.06,2-26.34,3-22.4,2.29-36.38,3.62l9.62,8.91a82,82,0,0,1,9.36-2.37c3.81-.8,8.07-1.52,12.79-2.2a111,111,0,0,1-6.6,37.69A101,101,0,0,1,938,394.53a120.3,120.3,0,0,1-31.39,25.21l2.06,3.42a131.49,131.49,0,0,0,29.43-17.44,88.7,88.7,0,0,0,20.32-22.84,92.33,92.33,0,0,0,11.46-29.17c.61-2.93,1.22-5.48,1.87-7.61a41.84,41.84,0,0,1,1.94-5.48,32.36,32.36,0,0,1,2.13-4.27,4.57,4.57,0,0,0,.68-2.28,4.46,4.46,0,0,0-.68-2.29l-5.7-7.54L988.83,322a48.42,48.42,0,0,1,.73,5.64c.15,2.24.27,5,.34,8.3s.08,7.28.08,11.88v28.55a96,96,0,0,0,1.18,16.94A24.79,24.79,0,0,0,995.39,404a16.48,16.48,0,0,0,8.37,5.63,45.66,45.66,0,0,0,13.63,1.64c5.74,0,10.66,0,14.77-.19s7.74-.31,10.93-.61,6.28-.72,9.25-1.26a3.49,3.49,0,0,0,2.36-1.1,2.9,2.9,0,0,0,.15-2.33ZM934,243.61c.92-.8,1.37-1.52,1.33-2.17s-.53-1.41-1.56-2.17l-10.28-8.69L918,239l-24.9,3.2-8.22-16.45-3.2,1.37c.61,3.16,1.13,6.7,1.6,10.7s.76,8.22,1,12.79.34,9.29.34,14.2V368.56c0,4.72-.07,8.72-.23,12a63,63,0,0,1-.8,8.41,28.65,28.65,0,0,1-1.68,6.17,27,27,0,0,1-2.76,5.17L889,417a1.92,1.92,0,0,0,1.71,1.15c.65,0,1.22-.57,1.72-1.6a19.57,19.57,0,0,0,1-4.3c.26-1.9.45-4.54.61-7.92s.22-7.76.22-13.12V250l24.9-3-10.5,35.4A56.69,56.69,0,0,1,917,296.26a53.44,53.44,0,0,1,3.95,14.43,45.89,45.89,0,0,1-.18,13.7,32.23,32.23,0,0,1-4.12,11.5l-15.76-11.42-2.75,3c2.18,2.48,4.28,5,6.37,7.58s4,5.13,5.8,7.61,3.31,4.8,4.53,7a3.11,3.11,0,0,0,1.94,1.53,2.11,2.11,0,0,0,1.94-1.06A57.83,57.83,0,0,0,929.31,328a46.5,46.5,0,0,0-.7-23.07c-2.21-7.8-6.52-15.49-12.87-23.15,2.48-7.08,4.6-12.87,6.33-17.36s3.21-8.07,4.53-10.7a35.29,35.29,0,0,1,3.66-6.21,22.94,22.94,0,0,1,3.77-3.88Zm84.29,42.72-8.67-6.4a31.55,31.55,0,0,1-4.69,1.83c-1.83.57-4.14,1.14-7,1.75s-6.45,1.22-10.73,1.86-9.63,1.44-15.92,2.25-13.74,1.79-22.42,2.82l11.65,8.68c2.47-.64,4.9-1.22,7.3-1.75s5-1,7.79-1.52,6.15-1,9.88-1.6,8.23-1.19,13.44-1.87,11.33-1.48,18.47-2.4c1.37-.15,2.15-.61,2.36-1.33s-.3-1.49-1.45-2.32Zm27.65-37-12.8-11.42-6.16,9.37-77.89,11c0-3.32-.12-6.74-.39-10.32s-.64-7.27-1.21-11.15l-4.12.23a106.59,106.59,0,0,1-1.48,19,54.74,54.74,0,0,1-3.9,13.41,21.19,21.19,0,0,1-5.58,7.76l4.79,13.93c.34,1.14.84,1.76,1.49,1.76s1.37-.65,2.17-2a54,54,0,0,0,5.24-11.73,60.12,60.12,0,0,0,2.52-12.72l78.58-11L1020.13,279l3.66,1.83a151,151,0,0,1,8.68-14.84,61.41,61.41,0,0,1,7.24-9.14,20.19,20.19,0,0,1,5.79-4.35c.91-.46,1.37-1,1.45-1.52a2.2,2.2,0,0,0-1-1.68Zm-47.07-16.9-21.24-25.59-2.74,2.28,14.16,35.18c.46,1,1,1.59,1.68,1.71s1.29-.22,2-1a17.4,17.4,0,0,0,1.94-2.82,28.77,28.77,0,0,0,2-3.88c.69-1.57,1.41-3.54,2.25-5.86ZM823.69,343.21,812,333.83c-2.37,1.15-6.42,2.26-12.21,3.32s-13.59,2.1-23.46,3.12-22.08,2.09-36.74,3.16a18.92,18.92,0,0,0-.84-2.82c-.34-.87-.76-1.75-1.22-2.66q10.16-9.14,17.56-15.42c4.95-4.19,9.16-7.65,12.64-10.32s6.34-4.76,8.7-6.24a40,40,0,0,1,5.88-3.19c.8-.35,1.22-.72,1.26-1.19s-.24-.88-.81-1.33l-9.59-10-8.44,8-86.36,8.68,13,9.6c2-.5,4.75-1.06,8.25-1.68s7.88-1.33,13.25-2.09,11.84-1.63,19.46-2.59,16.56-2.05,26.88-3.24l-23.77,26.5c-.8-1.64-1.71-3.23-2.71-4.87a43,43,0,0,0-3.22-4.49l-3.89,1.82a47.72,47.72,0,0,1,3.43,7.77,78.21,78.21,0,0,1,2.75,10.51l-86.13,6.62,12.12,10c2.17-.42,5-.91,8.54-1.44s7.49-1.15,11.91-1.76,9.1-1.22,14-1.83,9.78-1.21,14.7-1.75,9.59-1.06,14.08-1.52,8.52-.8,12.15-1.07a133.22,133.22,0,0,1,1.45,18.08,151.32,151.32,0,0,1-.69,16.87,102.46,102.46,0,0,1-2.08,13.43,25.16,25.16,0,0,1-2.79,7.8l-28.31-15.3-1.6,2.51c4.61,3.69,8.57,7,11.91,9.82s6.25,5.45,8.67,7.76,4.62,4.49,6.49,6.56,3.67,4.15,5.35,6.24a2.9,2.9,0,0,0,2,1.22,1.87,1.87,0,0,0,1.64-1A47.59,47.59,0,0,0,741.09,412a96.33,96.33,0,0,0,3-17.82,153.53,153.53,0,0,0,.15-20.79A185.83,185.83,0,0,0,741.44,351l81.78-4.79c1.26-.12,1.89-.46,1.93-1s-.47-1.18-1.47-2Zm3-71.73a1.69,1.69,0,0,0,1-1.45,2.47,2.47,0,0,0-1-1.75l-11.19-10.05-7.32,9.14-46.59,3.88c4.25-8.19,7.91-15,10.92-20.48s5.64-9.86,7.71-13.18a82.92,82.92,0,0,1,5.35-7.69,22.21,22.21,0,0,1,3.89-3.89,2.79,2.79,0,0,0,1.22-1.75,2.58,2.58,0,0,0-.33-1.9l-10.95-15.53-3.2,1.14a28.16,28.16,0,0,1,0,8,65.81,65.81,0,0,1-2.82,12c-1.53,4.83-3.86,10.81-6.94,17.93s-7.11,15.72-12.18,25.78l-88.18,7.54c.08-1.49.11-3.16.08-5.11s-.08-4-.16-6.16-.22-4.23-.38-6.32l-4.57.22a86.55,86.55,0,0,1-2.7,18.85,51.61,51.61,0,0,1-5.26,12.87,35.67,35.67,0,0,1-6.2,8l5.24,13.94c.35.91.8,1.41,1.34,1.48s1.07-.35,1.64-1.26a69.3,69.3,0,0,0,4.34-8.41,87.38,87.38,0,0,0,3.51-9.82,72.88,72.88,0,0,0,2.21-10.1l140.93-11.88L794.21,298l3.43,2.28q6.44-7.59,10.84-12.56c3-3.31,5.45-6,7.51-8.07a50.6,50.6,0,0,1,5.59-5,34.89,34.89,0,0,1,5.07-3.16Zm-116-22.84-28.1-29.7-3,2.51,23.75,46.14c.5.88,1.07,1.3,1.68,1.18a2.12,2.12,0,0,0,1.52-1.41,30.11,30.11,0,0,0,1.64-4.64c.53-1.94,1-4.12,1.45-6.55s.8-4.91,1-7.54Zm37.22-6.17-24-35.63-3,1.37,16,50.49c.34.92.8,1.37,1.33,1.41s1.07-.38,1.64-1.18a57.34,57.34,0,0,0,4.27-7.38,79.87,79.87,0,0,0,3.71-9.06Z"/><path class="cls-6" d="M24.76,0H586.15l96.54,402H24.76A24.84,24.84,0,0,1,0,377.24V24.76A24.83,24.83,0,0,1,24.76,0Z"/><path class="cls-5" d="M134.4,100.53h-1.57L100.29,237.79H167L134.4,100.53Zm-40,164.72-17.65,70.6H41.46L108.13,61.3h51l66.68,274.54H190.48l-17.64-70.6Z"/><path class="cls-5" d="M331.67,339.77q-20.79,0-36.68-6.67t-27-22.75Q256.75,294.27,251.07,267t-5.67-68.43q0-41.19,5.67-68.44T267.36,86.8q10.58-16.07,25.88-22.75t34.51-6.67a232.37,232.37,0,0,1,33.73,2.36q16.08,2.34,25.09,5.48V82.88h-51A47.19,47.19,0,0,0,313.83,88q-10,5.09-17.45,18.23T284.8,141.71q-4.12,22.35-4.11,56.87T285,255.45q4.31,22.36,12,35.49t18.44,18.24a55.71,55.71,0,0,0,24.12,5.1h51v17.65q-9,3.14-25.1,5.49a233.22,233.22,0,0,1-33.73,2.36Z"/><path class="cls-5" d="M497.19,100.53h-1.58L463.07,237.79h66.67L497.19,100.53Zm-40,164.72-17.66,70.6H404.24L470.91,61.3h51l66.68,274.54H553.26l-17.64-70.6Z"/><polygon class="cls-7" points="682.68 402 594.67 518.42 565.11 402 682.68 402 682.68 402"/><path class="cls-1" d="M696.15,91.93,688.75,73H664.92l-7.32,18.9h-7l23.5-59.69h5.81L703.3,91.93ZM686.6,66.79l-6.92-18.41c-.88-2.33-1.82-5.19-2.77-8.58a71.7,71.7,0,0,1-2.56,8.58l-7,18.41Zm51.88-29q-9.78,0-15.46,6.51t-5.66,17.87q0,11.67,5.46,18t15.6,6.37a53.46,53.46,0,0,0,14.18-2.23v6.06a43.47,43.47,0,0,1-15.24,2.33q-13.15,0-20.26-8t-7.15-22.64A35.75,35.75,0,0,1,713.38,46a24.57,24.57,0,0,1,9.92-10.64,30,30,0,0,1,15.27-3.75,36.92,36.92,0,0,1,16.34,3.4L752,41a31.36,31.36,0,0,0-13.51-3.17Zm67.68,54.11L798.75,73H774.92l-7.31,18.9h-7l23.51-59.69h5.82l23.38,59.69Zm-9.54-25.14-6.92-18.41q-1.34-3.5-2.76-8.58a74.92,74.92,0,0,1-2.57,8.58l-7,18.41Zm75.54-5.15q0,14.71-8,22.5t-23,7.79H824.71V32.49h18.2q13.86,0,21.56,7.69t7.68,21.46Zm-7.33.25c0-7.76-1.94-13.58-5.83-17.51s-9.67-5.9-17.33-5.9h-10V85.93H840q12.38,0,18.58-6.07c4.16-4.06,6.22-10,6.22-18Zm56.93,30H888.64V32.49h33.11v6.16h-26.2V57.79h24.63v6.08H895.55V85.77h26.2v6.16Zm42.73,0-20.17-52.7H944q.57,6.27.57,14.89V91.93h-6.38V32.49h10.41l18.83,49h.31l19-49H997V91.93h-6.91V53.64q0-6.6.57-14.32h-.31L970,91.93Zm67.21-29.72,15.84-29.72H1055L1035.2,68.88V91.93h-7V69.2l-19.79-36.71H1016l15.74,29.72Z"/><path class="cls-2" d="M696.15,91.93,688.75,73H664.92l-7.32,18.9h-7l23.5-59.69h5.81L703.3,91.93ZM686.6,66.79l-6.92-18.41c-.88-2.33-1.82-5.19-2.77-8.58a71.7,71.7,0,0,1-2.56,8.58l-7,18.41Z"/><path class="cls-2" d="M738.48,37.83q-9.78,0-15.46,6.51t-5.66,17.87q0,11.67,5.46,18t15.6,6.37a53.46,53.46,0,0,0,14.18-2.23v6.06a43.47,43.47,0,0,1-15.24,2.33q-13.15,0-20.26-8t-7.15-22.64A35.75,35.75,0,0,1,713.38,46a24.57,24.57,0,0,1,9.92-10.64,30,30,0,0,1,15.27-3.75,36.92,36.92,0,0,1,16.34,3.4L752,41a31.36,31.36,0,0,0-13.51-3.17Z"/><path class="cls-2" d="M806.15,91.93,798.75,73H774.92l-7.31,18.9h-7l23.51-59.69h5.82l23.38,59.69Zm-9.54-25.14-6.92-18.41q-1.34-3.5-2.76-8.58a74.92,74.92,0,0,1-2.57,8.58l-7,18.41Z"/><path class="cls-2" d="M872.15,61.64q0,14.71-8,22.5t-23,7.79H824.71V32.49h18.2q13.86,0,21.56,7.69t7.68,21.46Zm-7.33.25c0-7.76-1.94-13.58-5.83-17.51s-9.67-5.9-17.33-5.9h-10V85.93H840q12.38,0,18.58-6.07c4.16-4.06,6.22-10,6.22-18Z"/><polygon class="cls-2" points="921.75 91.93 888.64 91.93 888.64 32.49 921.75 32.49 921.75 38.65 895.55 38.65 895.55 57.79 920.18 57.79 920.18 63.88 895.55 63.88 895.55 85.77 921.75 85.77 921.75 91.93 921.75 91.93"/><path class="cls-2" d="M964.48,91.93l-20.17-52.7H944q.57,6.27.57,14.89V91.93h-6.38V32.49h10.41l18.83,49h.31l19-49H997V91.93h-6.91V53.64q0-6.6.57-14.32h-.31L970,91.93Z"/><polygon class="cls-2" points="1031.7 62.21 1047.54 32.49 1055.02 32.49 1035.19 68.88 1035.19 91.93 1028.19 91.93 1028.19 69.2 1008.39 32.49 1015.96 32.49 1031.7 62.21 1031.7 62.21"/></g></g></svg>