<?xml version="1.0" encoding="utf-8"?>
<!-- Generator: Adobe Illustrator 20.1.0, SVG Export Plug-In . SVG Version: 6.00 Build 0)  -->
<svg version="1.1" id="Слой_1" xmlns="http://www.w3.org/2000/svg" xmlns:xlink="http://www.w3.org/1999/xlink" x="0px" y="0px"
	 viewBox="0 0 678.9 376.6" style="enable-background:new 0 0 678.9 376.6;" xml:space="preserve">
<style type="text/css">
	.st0{fill:#F39801;}
	.st1{fill:#D8782D;}
	.st2{fill:#EDD5CD;}
	.st3{fill:#E5C6BD;}
	.st4{fill:#932318;}
	.st5{fill:#3163AA;}
	.st6{fill:#243B54;}
	.st7{fill:#FFFFFF;}
	.st8{fill:#E4E4E4;}
	.st9{fill:#92D0E6;}
	.st10{fill:#F6E8E3;}
	.st11{fill:#353434;}
	.st12{fill:#C1998C;}
	.st13{fill:#4C3118;}
	.st14{fill:#6B4620;}
	.st15{fill:#C91A02;}
	.st16{fill:#D05943;}
	.st17{fill:none;stroke:#1F2D4A;stroke-width:1.92;stroke-miterlimit:22.93;}
	.st18{fill:none;stroke:#7F7F7F;stroke-width:2.4;stroke-linecap:round;stroke-linejoin:round;}
	.st19{fill:#BDA24A;}
	.st20{fill:#314051;}
	.st21{fill:#D7B2A6;}
	.st22{fill:#D4B85C;}
	.st23{fill:#DB6461;}
	.st24{fill:#BC7D6C;}
	.st25{fill:#9B8B5D;}
	.st26{fill:#E4C5BB;}
	.st27{fill:#E0C771;}
	.st28{fill:none;stroke:#92D0E6;stroke-width:1.92;stroke-linecap:round;stroke-linejoin:round;}
	.st29{fill:none;stroke:#6980AC;stroke-width:1.92;stroke-linecap:round;stroke-linejoin:round;}
	.st30{fill:#B2834B;}
	.st31{fill:#A05547;}
	.st32{fill:#CACACA;}
	.st33{fill:#BF8E82;}
	.st34{fill:#4B5159;}
	.st35{fill:none;stroke:#A05547;stroke-width:6;stroke-miterlimit:22.93;}
	.st36{fill:#CD9E5C;}
	.st37{fill:#DEB77F;}
	.st38{fill:none;}
</style>
<title>Ресурс 2</title>
<polygon class="st0" points="2.5,188.9 29,204 106,268 89.7,293.5 55.9,259.7 7.3,211.2 7.9,211.2 1.9,205.1 7.6,205.5 0.2,198 
	0,197.7 13.5,200.2 3,189.7 "/>
<polygon class="st0" points="68.9,350.4 94.7,376.6 115.1,358.6 99.1,341.9 88.8,329.6 "/>
<path class="st1" d="M126,293.9"/>
<polygon class="st0" points="207.6,363 139.8,251.5 99.1,218 77.3,231.5 27,181.1 34.3,198.7 66.8,258.3 "/>
<polyline class="st0" points="158,68.7 259.1,166 265.9,218.9 243.5,224.4 143.9,215.7 "/>
<polyline class="st0" points="262.8,12.4 349.2,99.9 366.2,161.7 343.9,167.2 244.2,158.6 236.6,77.6 262.8,12.4 "/>
<path class="st1" d="M333.6,376.6"/>
<polyline class="st0" points="354.2,52.5 678.9,376.6 371.7,376.6 "/>
<path class="st0" d="M112.8,138.7l9,237.9H633L349.8,185.4L219.6,161C196.8,149.2,114.9,116.1,112.8,138.7z"/>
<path class="st2" d="M233,319.7c-41.7,0-51.8-41.4-39.5-73.4c8-20.7-9.9-63.6-19.5-92.6c-14.8-44.8,132.2-41.7,118.9-1.5
	c-9.6,29-27.8,73.4-19.8,94.1C286.6,281.1,279.2,319.7,233,319.7z"/>
<path class="st2" d="M161.4,176.3c-5.7,32.2-8.2,60.2,1.5,62.4s19.3-25.8,28-51.1C216.6,113.1,173.4,109,161.4,176.3z"/>
<path class="st2" d="M303.9,176.3c5.7,32.2,8.2,60.2-1.5,62.4s-19.3-25.8-28-51.1C248.8,113.1,291.9,109,303.9,176.3z"/>
<path class="st2" d="M311.5,261.7c-0.9,22.2-2.2,48.6-9,47.6c-5.9-0.9-8.8-29-10.4-46.4C285.4,190.5,313.7,207.4,311.5,261.7z"/>
<path class="st3" d="M220.4,80.4h25.1v48.4c0,6.9-5.6,12.5-12.6,12.5l0,0c-6.9,0-12.5-5.6-12.6-12.5V80.4H220.4z"/>
<path class="st4" d="M182,176.5c-2.8-8.1-5.6-15.8-7.9-22.8c-6.1-18.6,15.6-28.9,42.1-31.8c5.6-0.6,10.9,6.6,16.8,6.7
	c5.4,0,11.3-7.1,16.6-6.5c26.8,3.1,49,13.4,43.4,30.2c-2.4,7.4-5.5,15.8-8.5,24.6c-12.4,9.4-30.7,15.3-51.1,15.3
	C212.9,192.1,194.4,186,182,176.5z"/>
<path class="st5" d="M277.8,376.6c0,0,0.6-9.8,0.8-14.4c1.7-34.2,2.3-67,1.9-85.6c-12.7-14.6-80.9-14.6-93.5,0
	c-0.4,18.6-0.9,56.3,0.4,89c0.4,11.1,0.3,4.9,0.4,11.1h38.6l0.5-14l0,0c0.6-7.8,2.9-40.4,5.9-40.7c0.4,0,0.6-0.6,0.9-1.6
	c0.2,1,0.5,1.6,0.9,1.6c1.8,0.2,1.9,54.7,1.9,54.7"/>
<path class="st4" d="M187,271l-1.9,15.4c12.7,2.3,30.1,6.1,46.2,0.8l3.6-11.2L187,271z"/>
<path class="st4" d="M279.7,271l1.9,15.4c-12.7,2.3-30.1,6.1-46.1,0.8l-3.6-11.2L279.7,271z"/>
<path class="st6" d="M182.7,283.2c0.3-57,14-62.2-11.2-139c2.1-5.3,2.7-14.1,28.5-19.8c18.2,18.9,47.1,20.9,66.5,0.1
	c14.6,3.7,24.7,7.1,28.7,20.4c-24.7,80.9-10.6,80.6-11.7,138.4C254.8,276.5,211.2,277,182.7,283.2z"/>
<polygon class="st7" points="129,268.4 206.8,268.4 206.8,321.9 202.1,325.8 130.5,320.7 "/>
<polygon class="st8" points="130.5,270.7 125.4,274.2 126.3,323 200.4,323.6 205.2,319.7 205.2,270.7 "/>
<rect x="124.4" y="272.4" class="st7" width="77.8" height="53.5"/>
<polygon class="st9" points="138.4,272.1 202.2,285.5 193,329.3 188.5,331.8 130.6,315.3 "/>
<polygon class="st7" points="139.3,274.3 134.4,276.3 126.7,316.5 187.5,329.6 192.1,327.2 200.6,287 "/>
<polygon class="st9" points="133.9,274.6 197.7,287.9 188.5,331.8 124.7,318.5 "/>
<path class="st2" d="M233.2,2.1c39.6-0.3,42.6,45.9,34.8,76c-4,15.3-23.1,27.7-34.7,27.7c-11.9,0-30.4-11.7-35.2-28.1
	C189.4,48,195.5,2.3,233.2,2.1z"/>
<path class="st10" d="M258.7,52.4c-2.5-1.5-17.1-1.9-20.4,2.4c-2.7,3.6,1.7,12.4,5.9,14.4s12.3,0.8,14.6-3.3S261.5,54,258.7,52.4z"
	/>
<path class="st10" d="M206.6,52.5c2.5-1.5,17.1-2,20.4,2.3c2.7,3.6-1.6,12.4-5.8,14.4s-12.3,0.9-14.6-3.2S203.8,54.2,206.6,52.5z"/>
<path class="st11" d="M217.6,63.4c1.6,0,2.8-3.2,2.8-7s-1.3-7-2.8-7s-2.8,3.2-2.8,7S216.1,63.4,217.6,63.4z"/>
<path class="st11" d="M247,63.4c1.6,0,2.8-3.2,2.8-7s-1.3-7-2.8-7s-2.8,3.2-2.8,7S245.5,63.4,247,63.4z"/>
<path class="st12" d="M249.8,80.8c-9.4,2.3-23.6,2.3-33.5,0.2C223.8,86,241.4,86.2,249.8,80.8z"/>
<path class="st12" d="M229.6,74.3c7,1.5,9.9-2.8,10-6.4C241.4,74.4,236.6,78,229.6,74.3z"/>
<path class="st13" d="M241.2,42.6c4.3-2,9.2-2.1,13.6-0.4c2.9,1.1,2.4,2.6-0.7,1.5c-4.7-1.7-7.7-0.7-12.1,1.2
	C240.2,45.6,239.3,43.4,241.2,42.6z"/>
<path class="st12" d="M241.4,87.9c-5.5,1.1-11.2,1.2-16.7,0.1C228.7,92,237.5,92.2,241.4,87.9z"/>
<path class="st13" d="M223.1,42.6c-4.3-2-9.2-2.1-13.6-0.4c-2.9,1.1-2.4,2.6,0.7,1.5c4.7-1.7,7.7-0.7,12.1,1.2
	C224.1,45.6,225,43.4,223.1,42.6z"/>
<path class="st2" d="M192.3,51.8c2.5-0.5,5.4,3.3,6.5,8.4s-0.1,9.8-2.7,10.3s-5.4-3.3-6.5-8.4S189.8,52.3,192.3,51.8z"/>
<path class="st2" d="M273.7,51.8c-2.5-0.5-5.4,3.3-6.5,8.4s0.1,9.8,2.7,10.3s5.4-3.3,6.5-8.4S276.2,52.3,273.7,51.8z"/>
<rect x="263" y="51.2" class="st5" width="7.6" height="3.5"/>
<rect x="195.3" y="51.2" class="st5" width="7.6" height="3.5"/>
<path class="st14" d="M193.8,54.9c0.7,3.3,3.4,10.4,3.2,2.5s0.9-27.9,9.2-36.1s17.9-3.5,26.6-3.5h0.4c8.7,0,18.3-4.8,26.6,3.5
	s9.4,28.2,9.2,36.1s2.5,0.9,3.2-2.5c2.5-12.3,5.8-37-14.4-45.2c-19.1-18.3-50.2-9.4-60.3,14.6C190.9,39.8,192.5,48.5,193.8,54.9z"/>
<path class="st2" d="M165,222c12.3-0.3,12.2,19.3,11.1,36.1c-0.9,14.3-0.7,51.2-7.6,51.9c-9.4,0.9-10.6-34.4-11.6-50.5
	C155.9,241.9,153.7,222.3,165,222z"/>
<path class="st2" d="M307.9,281.8c-1.1,12.9,3.2,36-0.5,45c-1.5,3.8-3,9.8-5.9,12.2c-4.1,3.4-9.6,5.6-11.5,5.7
	c-3.2,0.3-4.4-2.3-0.1-4.5c2.3-1,4.4-2.5,6.1-4.4c3.7-4,4.2-12.2,3.5-12.5c-4.5-1.6-8,12.3-11.7,10.9c-1.7-0.6,1.6-9,2.3-13.2
	c0.8-4.7-0.4-12,2.8-16.4c5.9-8.2,1-20.6,0.5-29.6S308.9,270,307.9,281.8z"/>
<polygon class="st15" points="219.6,118.6 233,128.5 223.4,143.7 205.8,122.8 "/>
<polygon class="st15" points="246.4,118.6 233,128.5 242.5,143.7 260.2,122.8 "/>
<path class="st6" d="M178.5,133c-15.8,14.6-23.5,82-24.8,96.4s0.5,67.4,1.1,74.9c8,1.8,17.2,2.2,25.5-1.5c0,0-2.4-63.5-2-71.9
	s14-41.7,23.5-63.9S193.6,131.1,178.5,133z"/>
<path class="st16" d="M311.4,303.2h-22.7c0,2.1-0.5,3.3-0.5,5.4c6,2.7,15.8,3.3,23.6,1.1C311.9,307.6,311.4,305.3,311.4,303.2z"/>
<path class="st6" d="M288,134.3c16.9,17.1,24.6,80.3,24.8,96.4s-0.3,76-0.3,76c-8.2,2.4-16.5,1.4-25.1-0.8c0,0,1.2-65.3,0.9-73.7
	s-14-43.1-23.5-65.3S272.8,132.3,288,134.3z"/>
<path class="st2" d="M161.8,294.2c6.9-2.9,15.4,9.2,20.7,20c9.4,18.9-3.5,3.1-3.6,4.1c-0.4,3.7-0.6,7.3-0.6,11
	c0,3.8-2.4,4.5-3.5,3.3c-0.8-0.8-1.6-0.6-1.9-0.2c-1.8,2-4.1,1.4-4.8-0.1c-0.5-1.2-1.5-1.1-2.5-0.2c-1.1,1.1-2.6,1.8-3.8,1
	s-1.1-4.4-2.6-2.4c-1.7,2.5-3.1,1.9-4,0.8C153.1,328.4,155.8,296.7,161.8,294.2z"/>
<path class="st16" d="M156.2,301.2h22.7c0,2.1,0.4,3.3,0.4,5.4c-5,3-14.7,4-23.6,1.1C155.7,305.6,156.2,303.3,156.2,301.2z"/>
<path class="st6" d="M155.2,215.3c-0.8,6.2-1.3,11.2-1.6,14.1c-1.4,14.4,0.5,67.4,1.1,74.9c8,1.8,17.2,2.2,25.5-1.5
	c0,0-2.4-63.5-2-71.9c0.1-2.8,1.7-8.5,4.2-15.6L155.2,215.3z"/>
<path class="st14" d="M256.2,11.9c3,17.3-9.8,29.2-27.6,31.2C241.5,36.7,251.5,22.6,256.2,11.9z"/>
<path class="st14" d="M255.4,10.2c-4.6,23.1-40.4,34-70.8,27.4C211.2,35.2,239.5,23.6,255.4,10.2z"/>
<path class="st14" d="M256.2,13.8c-11.4,15.6-37,29.6-59.4,20.4C211.7-0.5,237.2-0.6,256.2,13.8z"/>
<path class="st14" d="M255.3,11.4c-3.6,16.7,7.2,35,15.8,40C271.1,27.2,261,16.2,255.3,11.4z"/>
<path class="st17" d="M260.5,293.4c0,0,8.6,13.6,13.7,17.5"/>
<path class="st5" d="M232.6,52.7c-1.9,0-9.7-2-15.2-2.4s-13.7,0.3-15.1,0.7c-1.7,0.5-1.7,0.7-1.8,2s0.1,2.4,1.1,2.7
	c1.4,0.5,1.4,2.2,2.3,7.1c0.8,4.5,2.8,8,11.4,8.6c8.4,0.6,11.2-4.8,12.1-6.5c1.6-3.1,1.1-7.3,5.3-7.4s3.8,4.2,5.5,7.3
	c0.9,1.7,3.7,7.2,12.1,6.5c8.6-0.7,10.5-4.2,11.3-8.7c0.9-4.9,0.9-6.6,2.3-7.1c1-0.3,1.2-1.4,1.1-2.7s-0.1-1.4-1.8-2
	c-1.4-0.5-9.6-1.1-15.1-0.6C243,50.6,237,52.6,232.6,52.7L232.6,52.7z M206.6,52.5c2.5-1.5,17.1-2,20.4,2.3
	c2.7,3.6-1.6,12.4-5.8,14.4s-12.3,0.9-14.6-3.2S203.8,54.2,206.6,52.5L206.6,52.5z M258.6,52.4c2.8,1.6,2.3,9.6,0.1,13.5
	s-10.6,5.2-14.6,3.3s-8.6-10.8-5.9-14.4C241.5,50.5,256.2,50.9,258.6,52.4L258.6,52.4z"/>
<line class="st18" x1="187.9" y1="192.9" x2="194.4" y2="183.9"/>
<line class="st18" x1="200.9" y1="192.9" x2="194.4" y2="183.9"/>
<line class="st18" x1="213.9" y1="192.9" x2="207.4" y2="183.9"/>
<line class="st18" x1="200.9" y1="192.9" x2="207.4" y2="183.9"/>
<line class="st18" x1="213.9" y1="192.9" x2="220.4" y2="183.9"/>
<line class="st18" x1="226.8" y1="192.9" x2="220.4" y2="183.9"/>
<line class="st18" x1="239.8" y1="192.9" x2="233.3" y2="183.9"/>
<line class="st18" x1="226.8" y1="192.9" x2="233.3" y2="183.9"/>
<line class="st18" x1="239.8" y1="192.9" x2="246.3" y2="183.9"/>
<line class="st18" x1="252.8" y1="192.9" x2="246.3" y2="183.9"/>
<line class="st18" x1="265.8" y1="192.9" x2="259.3" y2="183.9"/>
<line class="st18" x1="252.8" y1="192.9" x2="259.3" y2="183.9"/>
<line class="st18" x1="265.8" y1="192.9" x2="272.3" y2="183.9"/>
<line class="st18" x1="278.8" y1="192.9" x2="272.3" y2="183.9"/>
<line class="st18" x1="187.9" y1="207.7" x2="194.4" y2="198.7"/>
<line class="st18" x1="200.9" y1="207.7" x2="194.4" y2="198.7"/>
<line class="st18" x1="213.9" y1="207.7" x2="207.4" y2="198.7"/>
<line class="st18" x1="200.9" y1="207.7" x2="207.4" y2="198.7"/>
<line class="st18" x1="213.9" y1="207.7" x2="220.4" y2="198.7"/>
<line class="st18" x1="226.8" y1="207.7" x2="220.4" y2="198.7"/>
<line class="st18" x1="239.8" y1="207.7" x2="233.3" y2="198.7"/>
<line class="st18" x1="226.8" y1="207.7" x2="233.3" y2="198.7"/>
<line class="st18" x1="239.8" y1="207.7" x2="246.3" y2="198.7"/>
<line class="st18" x1="252.8" y1="207.7" x2="246.3" y2="198.7"/>
<line class="st18" x1="265.8" y1="207.7" x2="259.3" y2="198.7"/>
<line class="st18" x1="252.8" y1="207.7" x2="259.3" y2="198.7"/>
<line class="st18" x1="265.8" y1="207.7" x2="272.3" y2="198.7"/>
<line class="st18" x1="278.8" y1="207.7" x2="272.3" y2="198.7"/>
<path class="st13" d="M256.6,12.3c-8.3,15.5-38.4,24.6-54.1,12.7C216.7,27.8,244.8,20.5,256.6,12.3z"/>
<path class="st13" d="M256.3,11.7c-3,11.5,5.3,23.7,14.7,25C265.3,32.8,257.4,18.5,256.3,11.7z"/>
<path class="st15" d="M326.3,328.3c-19.8,0-44.8-23.5-45.5-35.9s5.6-24.1,13.1-42.1s-3.6-44.2-12.6-69.4
	c-13.8-38.9,102.7-34.5,90.2,0.4c-3.7,10.5-9.7,17-12.7,27.2c-4.2,14.1-4.4,31.4,0,41.8c7.5,17.9,13.8,29.7,13.1,42.1
	S346.1,328.3,326.3,328.3z"/>
<path class="st19" d="M302.9,98.7c-6.5,3,66.1,26,49.3,37.4c-13.2,8.9-34.9,7.5-47.2,2.7s-30.7-16.5-25.7-27.9s5.2-12.6,8.6-30.7
	S313.8,80.6,302.9,98.7z"/>
<path class="st15" d="M296.6,159.8c16.4,3.8,0.8,35.5-5.8,50.4c-6.4,14.5-20.7,44.2-28.6,41.5s0.8-32.8,4.6-48.7
	C270.6,187.6,280.9,156.1,296.6,159.8z"/>
<path class="st20" d="M323,376.6c0,0,1.5-39.7,0.7-51.9c-6.3-96.3-52.8-72.1-44.6,4c1.6,14.7,5.9,47.8,5.9,47.8"/>
<path class="st20" d="M330.1,376.6c0,0-1.5-39.9-0.7-52.2c6.3-96.3,52.8-72.1,44.6,4c-1.6,14.9-5.9,48.2-5.9,48.2"/>
<path class="st20" d="M326.2,328.3c-19.8,0-44.8-23.5-45.5-35.9c-0.4-6.6,1.2-12.9,3.9-20.1h83.3c2.7,7.2,4.3,13.6,3.9,20.1
	C371,304.8,346,328.3,326.2,328.3z"/>
<path class="st15" d="M356.6,161.5c-16.7,2.8-6.1,32.6-0.6,47.9c5.4,14.8,16.6,46.1,24.6,43.9s2.5-33.6-0.2-49.7
	C377.8,188.2,372.5,158.8,356.6,161.5z"/>
<path class="st7" d="M277.3,285.8c1.2-10.3,8.2-23.7,13.5-36.4s3.8-26,0.2-40.1c-2-20.8,11.6-34.5,11.7-53.8
	c13.8-3.6,31.7-3.2,45.6,0.7c1.7,21.2,13.5,34.4,8.8,57.2c-3.1,12.1,0,26.4,4.1,36.3c4.1,9.9,10.5,24.3,12.9,32
	C348.1,303,307.8,301.7,277.3,285.8z"/>
<polygon class="st5" points="348.3,265 348.3,191.2 293.1,191.2 289,195.6 294.4,263.6 "/>
<polygon class="st7" points="346,263.6 342.3,268.5 291.9,267.6 291.4,197.3 295.4,192.7 346,192.7 "/>
<rect x="289" y="195.6" class="st5" width="55.2" height="73.8"/>
<path class="st15" d="M309.8,154.1c10.7-1.5,21.6-1.3,32.2,0.7c-1.4,7.1-8,12.4-16,12.4C317.7,167.2,310.9,161.5,309.8,154.1z"/>
<path class="st21" d="M316.3,118H336c0,0,0.1,0,0.1,0.1l0,0v34.5c0,5-4.5,9.1-9.9,9.1l0,0c-5.4,0-9.9-4.1-9.9-9.1L316.3,118z"/>
<path class="st22" d="M288.1,71.7c-0.7,10.6-3.8,22.2-4.9,27.8s22.1,9.7,22.1,9.7S308.8,67.4,288.1,71.7z"/>
<path class="st2" d="M326.7,46c38.5,0,41,41.7,33.2,69.7c-4,14.2-21.6,26.6-33.2,26.6c-11.9,0-29.4-13.7-34.2-28.9
	C283.8,85.9,289,46,326.7,46z"/>
<path class="st23" d="M343.9,115.9c-9.3-0.5-25.4-0.4-33.8,0.1C315.7,129.9,339.9,130.4,343.9,115.9z"/>
<path class="st11" d="M311.8,98.8c1.5,0,2.8-2.9,2.8-6.4s-1.2-6.4-2.8-6.4s-2.8,2.9-2.8,6.4S310.3,98.8,311.8,98.8z"/>
<path class="st11" d="M340.5,98.8c1.5,0,2.8-2.9,2.8-6.4S342,86,340.5,86s-2.8,2.9-2.8,6.4S339,98.8,340.5,98.8z"/>
<path class="st2" d="M286,89.9c2.5-0.5,5.4,3,6.4,7.7s-0.1,8.9-2.6,9.4s-5.4-3-6.4-7.7S283.5,90.3,286,89.9z"/>
<path class="st2" d="M366.3,89.9c-2.5-0.5-5.4,3-6.4,7.7s0.1,8.9,2.6,9.4s5.4-3,6.4-7.7S368.8,90.3,366.3,89.9z"/>
<path class="st24" d="M343.2,116c-9.2,2-23.1,2.1-32.7,0.2C318.2,125.2,335.4,125.6,343.2,116z"/>
<path class="st12" d="M323.5,110c6.9,1.3,9.7-2.6,9.7-5.8C335,110.2,330.3,113.4,323.5,110z"/>
<path class="st7" d="M342.1,116.2c-10.1,1.7-20.5,1.8-30.7,0.1C316.2,122.3,337,122.1,342.1,116.2z"/>
<path class="st22" d="M334.8,79.9c2.7-1.1,7.2-3.2,13-0.1c2.6,1.4,2.4,2.3-0.5,1.1c-4.9-2.1-7.5-0.6-11.9,1.1
	C333.9,82.6,332.9,80.7,334.8,79.9z"/>
<path class="st25" d="M317.3,79.9c-2.7-1.1-7.2-3.2-13-0.1c-2.6,1.4-2.4,2.3,0.5,1.1c4.9-2.1,7.5-0.6,11.9,1.1
	C318.2,82.6,319.1,80.7,317.3,79.9z"/>
<path class="st22" d="M291.5,91c1.5-17.6,14.9-13.4,23.5-32.3c3.3-7.1,31.5-2.9,37.5,2.6c8.1,7.5,9.1,25.5,9,32.6s4,0.5,4.2-2.6
	c0.3-3.6,3.3-13.9-3.1-27.9c-8.4-18.4-39-31-58.4-14.2C277.9,57.7,290,109.7,291.5,91z"/>
<path class="st26" d="M288.2,234.9c0,0,1.1,0,1.6,0.1c12.5,0.8,44.9-0.2,45.9,5.2c1.3,7.4-29.8,10.3-43.5,13.1
	c-0.7,0.1-2.3,0.4-2.3,0.4"/>
<path class="st26" d="M322,236.3c4.8,0.3,11.9-5.6,17.7-7.8c16.4-6.3,2,2.8,2.8,2.9c2.9,0.5,5.8,0.8,8.7,0.9c3,0.1,3.2,2,2.1,2.8
	c-0.8,0.5-0.7,1.2-0.5,1.4c0.9,0.8,1,2.1,0.2,3c-0.2,0.3-0.6,0.5-0.9,0.6c-1,0.3-1.1,1.1-0.5,1.9s1.1,2,0.2,2.9s-3.7,0.7-2.2,1.8
	c1.8,1.4,1.1,2.4,0.1,3c-2.1,1.2-19.1-3.7-25.7-2.1C318.9,248.7,317.1,236,322,236.3z"/>
<path class="st2" d="M388.4,292.3c-1.7,10.2-0.6,29.4-4.3,36.4c-1.5,2.9-3.2,7.6-5.8,9.3c-3.7,2.5-8.5,3.9-10.2,3.9
	c-2.8,0-3.6-2.1,0.2-3.6c2-0.7,3.9-1.7,5.5-3.1c3.4-3,4.3-9.5,3.8-9.7c-3.7-1.5-7.7,9.3-10.7,8c-1.4-0.6,1.9-7.1,2.8-10.3
	c1-3.7,0.4-9.6,3.4-12.8c5.6-6.1,3.2-14.3,1.2-21.7C372.5,281.5,390,283,388.4,292.3z"/>
<path class="st15" d="M259.5,247.3c-0.9-9.8,17.6-13.1,30.1-12.3c0.7,3.9,0.7,12,0.3,18.7C277.3,255.9,260.2,255.8,259.5,247.3z"/>
<path class="st2" d="M369.1,255c0,0,0.5,6.7,0.8,8.5c1.8,11.4,6,40.9,12,41c8.2,0.1,8.1-28.8,7.4-41.7c-0.1-2.4-0.8-8.4-0.8-8.4"/>
<path class="st15" d="M369.1,228.7c-0.9,4.3-0.6,17.1,0,26.3c6.5,0.2,13-0.1,19.4-0.9c-1-8-2.4-15.9-4.2-23.8
	C379.6,214.1,369.4,227.1,369.1,228.7z"/>
<path class="st22" d="M364.1,102c-13.3-1.1-49.3-29.9-58.6-45.9C336.5,33.1,376.7,54.6,364.1,102z"/>
<path class="st22" d="M356.2,98.7c6.5,3,6.4,22-9.2,35c-6.9,5.7-3.5,7.7,7.1,3.7s26.9-13.3,21.9-24.7s-8-28.5-10.7-39.4
	S345.3,80.6,356.2,98.7z"/>
<path class="st27" d="M368,88.6c-10.2,10.8-47.2-10.8-62.1-36.1C319.7,64,346,84.2,368,88.6z"/>
<path class="st27" d="M357.5,69.6c-5.1,9.2-35.2,0.1-50.5-15.3C319,60.2,341.2,70.1,357.5,69.6z"/>
<path class="st27" d="M290.5,83c-5.4-4.1,3.4-26.5,17.6-29.2C299.4,62.5,292.2,73.8,290.5,83z"/>
<path class="st27" d="M349.2,54.5c-2.5-9-34.4-14.1-42.1-1.5C321.4,47.4,340.1,50.5,349.2,54.5z"/>
<path class="st28" d="M375.6,301.6c4.3,1.8,8.2,2.7,13.3,2"/>
<path class="st28" d="M385.6,303.9c0.7-1.4,2.4-1.9,3.3-0.3"/>
<path class="st28" d="M388.8,303.6c1.8,4.2-0.4,5.8,0.8,8.5"/>
<path class="st29" d="M388,299.5c-4.7,0.7-8.6,0.8-13.4-1.1"/>
<path class="st29" d="M377.7,299.4c-0.3-1.5-1.8-2.4-3.1-1"/>
<path class="st29" d="M374.6,298.4c-2.9,3.7-1.2,5.7-3.1,8.1"/>
<path class="st30" d="M132.9,252c23,0,41.8-39.2,41.8-87.2s-18.8-87.2-41.8-87.2s-41.8,39.2-41.8,87.2S109.9,252,132.9,252z"/>
<path class="st31" d="M95.1,299.5c-8.3,14.1,5.8,54.1-16.3,55.3c-18.8,1-15.3-29.8-2-45.7s10.3-12.8,16.9-23.4
	S104.7,287.7,95.1,299.5z"/>
<path class="st2" d="M79.2,262.1c7.9-5.4-0.3-20.2-8.2-28.3s-25.7-31-30.3-28.3c-6.4,3.6,9.3,26.8,15.2,37.9
	C61.3,253.5,71.9,267,79.2,262.1z"/>
<path class="st2" d="M42.9,209.9c0.7-0.9,5.7-0.1,4-2c-4.9-5.2-16.4-23.1-19.3-26.3c-3.8-4.2,2.7,11.6,0,13.7S7.2,188.2,3,188.6
	c-2.8,0.3,6.5,4.9,10.2,7.8c1.8,1.4,1.8,2.8-0.4,2.4c-6.8-1-10.2-2.8-12.7-1.3c-1.8,1.1,17.1,4.8,11.6,5.6c-4.6,0.7-8-0.2-9.9,1.3
	c-2.5,1.9,18.9,3.4,15.1,4.4c-4.2,1-7.9,1.3-9.6,2.2c-2.1,1.2,31.3,0.8,34,5.4C42.4,218.1,42.4,210.5,42.9,209.9z"/>
<path class="st2" d="M106,174.9c14.9,3.7,0.9,32.5-5.1,46.9c-5.8,14-17.9,43.4-25,40.8s-0.1-32.5,3.4-47.8
	C82.7,200.1,91.8,171.4,106,174.9z"/>
<path class="st20" d="M133,335.7c-17.9,0-40.5-22.6-41.2-34.6s5.1-23.3,11.8-40.6s-3.4-42.2-11.5-66.5
	c-12.5-37.5,100.9-33.7,84.5-2.1c-11.5,22.2-21,51.3-14.3,68.6s12.5,28.6,11.8,40.6S150.9,335.7,133,335.7z"/>
<path class="st20" d="M130.6,376.6c0.8-16.2,0.7-34.2,0.1-44.3c-5.7-92.9-47.8-69.5-40.4,3.9c1.2,12,2.7,27.2,4.4,40.4"/>
<path class="st2" d="M218.4,232.4c2.8,1.3,6.3,6.3,5.1,10.7c-1.6,6.1-7.1,12.3-11.7,17.1c-7.7,8.1-25.7,31-30.3,28.3
	c-6.4-3.7,9.3-26.8,15.2-37.9C202,240.4,210.4,228.6,218.4,232.4z"/>
<path class="st2" d="M157.6,175c-11.9,9.5,13.8,31.4,25.3,42c11.2,10.3,34.7,32.1,40,26.9s-13.6-29.6-23.3-42.1
	C190.4,189.8,169.1,165.9,157.6,175z"/>
<path class="st20" d="M134.9,376.6c-1.2-17.6-1.7-38.1-1-48.6c5.7-92.9,49.6-65.1,42.2,8.2c-1.1,11.4-3.4,27.8-4.5,40.4"/>
<path class="st7" d="M89.7,293.8c1.3-9.6,5.9-18,12-33.5s-1.5-42-9.7-66.3c-12.5-37.5,100.9-33.7,84.5-2.1
	c-11.5,22.2-18.8,53.1-12.7,68.6s10.7,23.8,12,33.4C142.2,302.3,110.5,299.6,89.7,293.8z"/>
<path class="st7" d="M107,173.7c13.1,3.3,3.8,27.2-2.8,42.7l0.1-1.1c-10.9-2.3-18.9-6.7-24.4-13.2C84.5,187.2,96,170.9,107,173.7z"
	/>
<path class="st7" d="M154,174.6c-11.7,9.4,13.2,31.2,20.4,36.5c8.2-5.2,13.6-12.7,16.4-22.2C180.2,177.4,162.8,167.5,154,174.6z"/>
<path class="st32" d="M170.4,201.4c-1.7,15.1,1.1,20.2-6.9,26.3s-20.8,2.6-32.3,2.6s-23.6,4-29.8-2.9s-2.4-10-3.8-23.8
	c3.1,12,0.9,13.4,9.3,19.6c5.1,3.8,15.4,2,24.4,2.3c11.8,0.5,22.4,2.8,29.7-3.8C166,217.1,167.8,208.3,170.4,201.4z"/>
<path class="st26" d="M123.9,132.9h17.8c0,0,0.1,0,0.1,0.1l0,0v33.3c-0.1,4.9-4.1,8.8-8.9,8.8l0,0c-4.9,0-8.9-3.9-8.9-8.8
	L123.9,132.9z"/>
<path class="st2" d="M133.4,63.5c34.8,0,37.1,40.2,30,67.2c-3.6,13.7-19.5,25.7-30,25.7c-10.8,0-26.6-13.2-31-27.9
	C94.6,102,99.2,63.5,133.4,63.5z"/>
<path class="st23" d="M148.9,130.9c-10.2-0.5-20.4-0.4-30.5,0.1C125.1,148.1,142.3,148.4,148.9,130.9z"/>
<path class="st11" d="M119.9,114.4c1.4,0,2.5-2.8,2.5-6.1s-1.1-6.1-2.5-6.1s-2.5,2.8-2.5,6.1S118.5,114.4,119.9,114.4z"/>
<path class="st11" d="M145.9,114.4c1.4,0,2.5-2.8,2.5-6.1s-1.1-6.1-2.5-6.1s-2.5,2.8-2.5,6.1S144.5,114.4,145.9,114.4z"/>
<path class="st2" d="M96.6,105.8c2.3-0.4,4.8,2.9,5.8,7.4s-0.1,8.6-2.4,9.1s-4.8-2.9-5.8-7.4S94.3,106.3,96.6,105.8z"/>
<path class="st24" d="M148.3,131c-8.3,2-20.9,2-29.6,0.2C125.7,144.6,141.3,145.1,148.3,131z"/>
<path class="st12" d="M130.5,125.3c6.2,1.3,8.8-2.5,8.8-5.6C140.9,125.4,136.6,128.6,130.5,125.3z"/>
<path class="st7" d="M147.3,131.3c-9.2,1.7-18.6,1.7-27.8,0.1C123.9,137.1,142.7,136.9,147.3,131.3z"/>
<path class="st30" d="M141.1,92.9c2.7-0.2,7.2-0.8,11.1,3.8c1.8,2.1,1.3,2.8-0.8,0.9c-3.5-3.4-6.2-2.8-10.4-2.6
	C139.4,95.1,139.3,93,141.1,92.9z"/>
<path class="st33" d="M98.8,107.6c0.2,3,3,9,2.8,2.2s0.8-24.2,8.1-31.4s15.7-3.1,23.3-3.1h0.4c7.6,0,16-4.1,23.4,3.1
	s8.3,24.5,8.1,31.4s2.6,0.8,2.8-2.2c0.2-3.5,1.3-13.1-4.5-26.5c-4.1-9.7-16.2-17.7-29.9-17.7c-14.8,0-25.8,8.1-29.9,17.7
	C97.5,94.6,98.5,104.1,98.8,107.6z"/>
<path class="st2" d="M190,283.9c-5.9,4.2-2.4,11.6-9.9,10.3c-3.1-0.6-7.2,0.6-8.6,3.3s-2.3-1.8,1.1-5.2c1.5-1.5,1.5-2.7-1.1-1.7
	c-2.1,0.7-2.8,2.2-3.9,4.3c-0.7,1.5-2-0.6-0.2-4c1.4-2.6,2.5-2.8,4.4-3.4s-2.5-1.1-4.9,0.3c-1.9,1.1-2.1,2.5-2.5,4.2
	s-2.5-0.7-0.4-4.3c1.4-2.6,4.1-4.2,7-4.2c2.6-0.1-2-1.8-7.1,1.3c-3.2,2-3.5-1.4,0.1-3c3.9-1.7,5.4-2.3,9.4-0.9
	c3.4,1.3,7.1,1.2,8.8-3.6C183.4,273.8,193.1,281.7,190,283.9z"/>
<ellipse class="st34" cx="115" cy="180.5" rx="3.1" ry="2.3"/>
<path class="st34" d="M118.2,177.7c0.5,0.7,0.4,1.6-0.2,2.2c-0.2,0.2-0.6,0.3-0.9,0.3c-0.5-0.7-0.4-1.6,0.2-2.2
	C117.5,177.8,117.8,177.7,118.2,177.7z"/>
<path class="st34" d="M111.9,177.7c-0.5,0.7-0.4,1.6,0.2,2.2c0.2,0.2,0.6,0.3,0.9,0.3c0.5-0.7,0.4-1.6-0.2-2.2
	C112.5,177.8,112.2,177.7,111.9,177.7z"/>
<path class="st34" d="M115,194.5c-5.1,0-1.2-6.4-0.9-8.6c0.3-1.3,0.3-2.6,0-3.8c-0.1-0.2,2.1-0.4,2-0.6c-0.5,1.4-0.6,3-0.2,4.4
	C116.2,188,120.1,194.5,115,194.5z"/>
<path class="st34" d="M114.8,193.4c-2.1,0-3.6-0.7-3.6,0s1.7,1.2,3.8,1.2s3.8-0.5,3.8-1.2S116.9,193.4,114.8,193.4z"/>
<path class="st34" d="M114.8,193.4c0.1,0,0.3,0.1,0.3,0.2l0,0c0,0.1-0.1,0.3-0.2,0.3l0,0c-1,0.2-2,0-2.8-0.4s-1.4-1.1-1.7-1.9
	c-0.5-1.8,0.4-2.8,1.2-3.8c0.7-0.8,1.3-1.5,0.9-2.4c-0.2-0.6-0.7-1-1.3-1.1c-0.2,0-0.4,0-0.7,0.1c-0.2,0.1-0.4,0.3-0.5,0.4l0,0
	c-0.3,0.5-0.3,1.1,0,1.5c0.1,0.2,0.4,0.4,0.7,0.4c0.1,0,0.2,0,0.3-0.1c0.1,0,0.2-0.1,0.3-0.2c0.1-0.2,0.1-0.5,0-0.8
	c-0.1-0.1,0-0.3,0.1-0.3c0.1-0.1,0.3,0,0.3,0.1l0,0c0.2,0.4,0.2,0.9-0.1,1.3c-0.1,0.2-0.3,0.3-0.4,0.4c-0.6,0.3-1.4,0.1-1.7-0.5
	c-0.4-0.6-0.4-1.5,0-2.1l0,0c0.2-0.3,0.4-0.5,0.7-0.6c0.3-0.1,0.6-0.2,0.9-0.2c0.8,0.1,1.5,0.6,1.8,1.4c0.5,1.3-0.2,2.1-1,3
	s-1.6,1.8-1.1,3.3c0.3,0.7,0.8,1.3,1.5,1.6C113,193.5,113.9,193.6,114.8,193.4z"/>
<ellipse class="st34" cx="135.9" cy="202.6" rx="1.9" ry="1.4"/>
<path class="st34" d="M134,200.9c-0.5,0-0.9,0.4-1,0.9c0,0.5,0.4,0.9,0.9,1c0.5,0,0.9-0.4,1-0.9c0-0.2,0-0.3-0.1-0.4
	C134.6,201.2,134.3,201,134,200.9z"/>
<path class="st34" d="M137.7,200.9c0.5,0,0.9,0.4,1,0.9c0,0.5-0.4,0.9-0.9,1c-0.5,0-0.9-0.4-1-0.9c0-0.2,0-0.3,0.1-0.4
	C137.1,201.2,137.4,201,137.7,200.9z"/>
<path class="st34" d="M135.9,210.9c3,0,0.7-3.8,0.5-5.1c-0.2-0.7-0.2-1.5,0-2.3c0-0.1-1.2-0.2-1.2-0.4c0.3,0.8,0.4,1.8,0.1,2.6
	C135.2,207.1,132.9,210.9,135.9,210.9z"/>
<path class="st34" d="M136,210.3c1.3,0,2.1-0.4,2.1,0s-1,0.7-2.3,0.7s-2.3-0.3-2.3-0.7S134.8,210.3,136,210.3z"/>
<path class="st34" d="M136,210.3c-0.1,0-0.2,0.1-0.2,0.2s0.1,0.2,0.2,0.2c0.6,0.1,1.2,0,1.7-0.2s0.8-0.6,1-1.1
	c0.2-0.8,0-1.7-0.7-2.2c-0.4-0.4-0.8-0.9-0.5-1.4c0.1-0.3,0.4-0.6,0.8-0.6c0.1,0,0.3,0,0.4,0.1c0.1,0.1,0.2,0.2,0.3,0.3l0,0
	c0.2,0.3,0.2,0.6,0,0.9c-0.1,0.2-0.2,0.2-0.4,0.2c-0.1,0-0.1,0-0.2,0c-0.1,0-0.1-0.1-0.1-0.1c-0.1-0.1-0.1-0.3,0-0.5
	c0-0.1,0-0.2-0.1-0.2l0,0c-0.1,0-0.2,0-0.2,0.1c-0.1,0.2-0.1,0.5,0.1,0.8c0.1,0.1,0.2,0.2,0.3,0.2c0.4,0.2,0.8,0,1-0.3
	c0.3-0.4,0.3-0.9,0-1.3l0,0c-0.1-0.2-0.3-0.3-0.4-0.4c-0.2-0.1-0.4-0.1-0.5-0.1c-0.5,0.1-0.9,0.4-1,0.8c-0.3,0.8,0.1,1.2,0.6,1.8
	c0.6,0.5,0.8,1.2,0.7,1.9c-0.1,0.4-0.5,0.8-0.9,1C137.1,210.4,136.5,210.4,136,210.3z"/>
<ellipse class="st34" cx="153.5" cy="187.5" rx="3.1" ry="2.3"/>
<path class="st34" d="M150.4,184.6c-0.5,0.7-0.4,1.6,0.2,2.2c0.2,0.2,0.6,0.3,0.9,0.3c0.5-0.7,0.4-1.6-0.2-2.2
	C151,184.8,150.7,184.6,150.4,184.6z"/>
<path class="st34" d="M156.6,184.6c0.8-0.1,1.6,0.6,1.6,1.4c0.1,0.8-0.6,1.6-1.4,1.6c-0.8,0.1-1.6-0.6-1.6-1.4c0-0.3,0-0.5,0.1-0.7
	C155.6,185,156.1,184.7,156.6,184.6z"/>
<path class="st34" d="M153.5,201.4c5.1,0,1.2-6.4,0.9-8.6c-0.3-1.3-0.3-2.6,0-3.8c0.1-0.2-2.1-0.4-2-0.6c0.5,1.4,0.6,3,0.2,4.4
	C152.3,195,148.4,201.4,153.5,201.4z"/>
<path class="st34" d="M153.7,200.4c2.1,0,3.6-0.7,3.6,0s-1.7,1.2-3.8,1.2s-3.8-0.5-3.8-1.2S151.6,200.4,153.7,200.4z"/>
<path class="st34" d="M153.7,200.4c-0.1,0-0.3,0.1-0.3,0.2l0,0c0,0.1,0.1,0.3,0.2,0.3l0,0c1,0.2,2,0,2.8-0.4s1.4-1.1,1.7-1.9
	c0.5-1.8-0.4-2.8-1.2-3.8c-0.7-0.8-1.3-1.5-0.9-2.4c0.2-0.6,0.7-1,1.3-1.1c0.2,0,0.4,0,0.6,0.1c0.2,0.1,0.4,0.3,0.5,0.4l0,0
	c0.3,0.5,0.3,1.1,0,1.5c-0.1,0.2-0.4,0.4-0.7,0.4c-0.1,0-0.2,0-0.3-0.1c-0.1,0-0.2-0.1-0.3-0.2c-0.1-0.2-0.1-0.5,0-0.8
	c0.1-0.1,0-0.3-0.1-0.3c-0.1-0.1-0.3,0-0.3,0.1l0,0c-0.2,0.4-0.2,0.9,0.1,1.3c0.1,0.2,0.3,0.3,0.4,0.4c0.6,0.3,1.4,0.1,1.7-0.5
	c0.4-0.6,0.4-1.5,0-2.1l0,0c-0.2-0.3-0.4-0.5-0.7-0.6s-0.6-0.2-0.9-0.2c-0.8,0.1-1.5,0.6-1.8,1.4c-0.5,1.3,0.2,2.1,1,3
	s1.6,1.8,1.1,3.3c-0.3,0.7-0.8,1.3-1.5,1.6C155.5,200.5,154.6,200.6,153.7,200.4z"/>
<ellipse class="st34" cx="112.5" cy="210.6" rx="1.8" ry="1.4"/>
<path class="st34" d="M114.3,208.9c0.5,0,0.9,0.4,1,0.9c0,0.5-0.4,0.9-0.9,1c-0.5,0-0.9-0.4-1-0.9c0-0.2,0-0.3,0.1-0.4
	C113.7,209.1,114,208.9,114.3,208.9z"/>
<path class="st34" d="M110.6,208.9c-0.5,0-0.9,0.4-1,0.9c0,0.5,0.4,0.9,0.9,1c0.5,0,0.9-0.4,1-0.9c0-0.2,0-0.3-0.1-0.4
	C111.2,209.1,110.9,208.9,110.6,208.9z"/>
<path class="st34" d="M112.5,218.8c-3,0-0.7-3.8-0.5-5.1c0.2-0.7,0.2-1.5,0-2.3c0-0.1,1.2-0.2,1.2-0.4c-0.3,0.8-0.4,1.8-0.1,2.6
	C113.2,215,115.5,218.8,112.5,218.8z"/>
<path class="st34" d="M112.3,218.2c-1.3,0-2.1-0.4-2.1,0s1,0.7,2.3,0.7s2.3-0.3,2.3-0.7S113.6,218.2,112.3,218.2z"/>
<path class="st34" d="M112.3,218.2c0.1,0,0.2,0.1,0.2,0.2s-0.1,0.2-0.2,0.2c-0.6,0.1-1.2,0-1.7-0.2s-0.8-0.6-1-1.1
	c-0.2-0.8,0.1-1.7,0.7-2.2c0.4-0.4,0.8-0.9,0.5-1.4c-0.1-0.3-0.4-0.6-0.8-0.6c-0.1,0-0.3,0-0.4,0.1s-0.2,0.2-0.3,0.3l0,0
	c-0.2,0.3-0.2,0.6,0,0.9c0.1,0.2,0.2,0.2,0.4,0.2c0.1,0,0.1,0,0.2,0s0.1-0.1,0.2-0.1c0.1-0.1,0.1-0.3,0-0.5c0-0.1,0-0.2,0.1-0.2l0,0
	c0.1,0,0.2,0,0.2,0.1c0.1,0.2,0.1,0.5-0.1,0.8c-0.1,0.1-0.2,0.2-0.3,0.2c-0.4,0.2-0.8,0-1-0.3c-0.3-0.4-0.3-0.9,0-1.3l0,0
	c0.1-0.2,0.3-0.3,0.4-0.4c0.2-0.1,0.4-0.1,0.5-0.1c0.5,0.1,0.9,0.4,1,0.8c0.3,0.8-0.1,1.2-0.6,1.8c-0.6,0.5-0.8,1.2-0.7,1.9
	c0.1,0.4,0.5,0.8,0.9,1C111.3,218.3,111.8,218.4,112.3,218.2z"/>
<ellipse class="st34" cx="125.7" cy="225.2" rx="3.1" ry="2.3"/>
<path class="st34" d="M122.6,222.3c-0.5,0.7-0.4,1.6,0.2,2.2c0.2,0.2,0.6,0.3,0.9,0.3c0.5-0.7,0.4-1.6-0.2-2.2
	C123.2,222.4,122.9,222.3,122.6,222.3z"/>
<path class="st34" d="M128.9,222.3c0.5,0.7,0.4,1.6-0.2,2.2c-0.2,0.2-0.6,0.3-0.9,0.3c-0.5-0.7-0.4-1.6,0.2-2.2
	C128.2,222.4,128.6,222.3,128.9,222.3z"/>
<path class="st34" d="M125.7,239.1c5.1,0,1.2-6.4,0.9-8.6c-0.3-1.3-0.3-2.6,0-3.8c0.1-0.2-2.1-0.4-2-0.6c0.5,1.4,0.6,3,0.2,4.4
	C124.6,232.7,120.6,239.1,125.7,239.1z"/>
<path class="st34" d="M126,238c2.1,0,3.6-0.7,3.6,0s-1.7,1.2-3.8,1.2s-3.8-0.5-3.8-1.2S123.9,238,126,238z"/>
<path class="st34" d="M126,238.1c-0.1,0-0.3,0.1-0.3,0.2l0,0c0,0.1,0.1,0.3,0.2,0.3l0,0c1,0.2,2,0,2.8-0.4s1.4-1.1,1.7-1.9
	c0.5-1.8-0.4-2.8-1.2-3.8c-0.7-0.8-1.3-1.5-0.9-2.4c0.2-0.6,0.7-1,1.3-1.1c0.2,0,0.4,0,0.6,0.1c0.2,0.1,0.4,0.3,0.5,0.4l0,0
	c0.3,0.5,0.3,1.1,0,1.5c-0.1,0.2-0.4,0.4-0.7,0.4c-0.1,0-0.2,0-0.3-0.1c-0.1,0-0.2-0.1-0.3-0.2c-0.1-0.2-0.1-0.5,0-0.8
	c0.1-0.1,0-0.3-0.1-0.3c-0.1-0.1-0.3,0-0.3,0.1l0,0c-0.2,0.4-0.2,0.9,0.1,1.3c0.1,0.2,0.3,0.3,0.4,0.4c0.6,0.3,1.4,0.1,1.7-0.5
	c0.4-0.6,0.4-1.5,0-2.1l0,0c-0.2-0.3-0.4-0.5-0.7-0.6s-0.6-0.2-0.9-0.2c-0.8,0.1-1.5,0.6-1.8,1.4c-0.5,1.3,0.2,2.1,1,3
	s1.6,1.8,1.1,3.3c-0.3,0.7-0.8,1.3-1.5,1.6C127.8,238.1,126.9,238.2,126,238.1z"/>
<ellipse class="st34" cx="155.6" cy="248.1" rx="3.1" ry="2.3"/>
<path class="st34" d="M158.7,245.3c0.8-0.1,1.6,0.6,1.6,1.4c0.1,0.8-0.6,1.6-1.4,1.6c-0.8,0.1-1.6-0.6-1.6-1.4c0-0.3,0-0.5,0.1-0.7
	C157.7,245.7,158.2,245.3,158.7,245.3z"/>
<path class="st34" d="M152.5,245.3c-0.5,0.7-0.4,1.6,0.2,2.2c0.2,0.2,0.6,0.3,0.9,0.3c0.5-0.7,0.4-1.6-0.2-2.2
	C153.1,245.4,152.8,245.3,152.5,245.3z"/>
<path class="st34" d="M155.6,262.1c-5.1,0-1.2-6.4-0.9-8.6c0.3-1.3,0.3-2.6,0-3.8c-0.1-0.2,2.1-0.4,2-0.6c-0.5,1.4-0.6,3-0.2,4.4
	C156.8,255.6,160.7,262.1,155.6,262.1z"/>
<path class="st34" d="M155.4,261c-2.1,0-3.6-0.7-3.6,0s1.7,1.2,3.8,1.2s3.8-0.5,3.8-1.2S157.5,261,155.4,261z"/>
<path class="st34" d="M155.4,261c0.1,0,0.3,0.1,0.3,0.2l0,0c0,0.1-0.1,0.3-0.2,0.3l0,0c-1,0.2-2,0-2.8-0.4s-1.4-1.1-1.7-1.9
	c-0.5-1.8,0.4-2.8,1.2-3.8c0.7-0.8,1.3-1.5,0.9-2.4c-0.2-0.6-0.7-1-1.3-1c-0.2,0-0.4,0-0.6,0.1c-0.2,0.1-0.4,0.3-0.5,0.4l0,0
	c-0.3,0.5-0.3,1.1,0,1.5c0.1,0.2,0.4,0.4,0.7,0.4c0.1,0,0.2,0,0.3-0.1c0.1,0,0.2-0.1,0.3-0.2c0.1-0.2,0.1-0.5,0-0.8
	c-0.1-0.1,0-0.3,0.1-0.3c0.1-0.1,0.3,0,0.3,0.1l0,0c0.2,0.4,0.2,0.9-0.1,1.3c-0.1,0.2-0.3,0.3-0.4,0.4c-0.6,0.3-1.4,0.1-1.7-0.5
	c-0.4-0.6-0.4-1.5,0-2.1l0,0c0.2-0.3,0.4-0.5,0.7-0.6s0.6-0.2,0.9-0.2c0.8,0.1,1.5,0.6,1.8,1.4c0.5,1.3-0.2,2.1-1,3
	s-1.6,1.8-1.1,3.3c0.3,0.7,0.8,1.3,1.5,1.6C153.6,261.1,154.5,261.2,155.4,261z"/>
<path class="st34" d="M183.9,182.4c-0.7,0.5-1.6,0.4-2.2-0.2c-0.3-0.5-0.3-1.1,0-1.6C182.4,181.3,183.2,181.9,183.9,182.4z"/>
<path class="st34" d="M180.6,180.9c0,0.4,0.2,0.7,0.5,0.9c0.3,0,0.6-0.3,0.6-0.6s-0.3-0.6-0.6-0.6
	C180.9,180.6,180.7,180.7,180.6,180.9z"/>
<path class="st34" d="M188.5,188.1c-2.6,1.9-3-2.8-3.7-4c-0.3-0.8-0.8-1.4-1.5-1.9c0,0,0-0.1,0.1-0.2c2,1.6,4,3.4,5.8,5.2
	C189.1,187.6,188.8,187.9,188.5,188.1z"/>
<path class="st34" d="M188,187.7c-1.1,0.8-2.1,1-1.8,1.3s1.3,0,2.4-0.8c0.3-0.2,0.6-0.5,0.9-0.7L189,187
	C188.6,187.2,188.3,187.5,188,187.7z"/>
<path class="st34" d="M188,187.7c0.1-0.1,0.2-0.1,0.2,0c0.1,0.1,0.1,0.2,0,0.2l0,0c-0.4,0.4-1,0.7-1.6,0.8s-1.1,0-1.6-0.3
	c-0.7-0.6-1-1.5-0.8-2.3c0-0.6,0.1-1.2-0.5-1.6c-0.3-0.2-0.7-0.2-1-0.1c-0.1,0.1-0.2,0.2-0.3,0.3s-0.1,0.3-0.1,0.4l0,0
	c0,0.4,0.3,0.7,0.6,0.8c0.2,0.1,0.4,0,0.5-0.1c0.1,0,0.1-0.1,0.1-0.2c0-0.1,0-0.1,0-0.2c0-0.2-0.1-0.3-0.3-0.4
	c-0.1,0-0.1-0.1-0.1-0.2l0,0c0-0.1,0.1-0.1,0.2-0.1c0.3,0.1,0.4,0.4,0.4,0.7c0,0.1,0,0.2-0.1,0.3s-0.1,0.2-0.2,0.3
	c-0.2,0.2-0.6,0.2-0.8,0.1c-0.5-0.2-0.8-0.6-0.8-1.1l0,0c0-0.2,0-0.4,0.1-0.6c0.1-0.2,0.2-0.3,0.4-0.4c0.4-0.3,1-0.3,1.4,0
	c0.8,0.4,0.7,1.1,0.6,1.9c-0.2,0.8,0.1,1.6,0.7,2.1c0.4,0.3,0.9,0.4,1.3,0.3C187.1,188.3,187.6,188.1,188,187.7z"/>
<path class="st34" d="M85.3,189.6c1.2,0.5,2.5,0,3.2-1c0.4-1,0-2.2-0.8-2.8C86.8,187,86,188.3,85.3,189.6z"/>
<path class="st34" d="M89.8,186c0.1,0.6-0.1,1.2-0.6,1.6c-0.5,0.3-1,0.4-1.6,0.2c-0.1-0.6,0.1-1.2,0.6-1.6
	C88.7,185.9,89.3,185.8,89.8,186z"/>
<path class="st34" d="M80.5,200.1c3.3,0.5,2.9-5.8,3.5-7.7c0.2-0.7,0.4-1.2,0.6-1.7C83,193.8,81.7,196.9,80.5,200.1z M85.2,189.7
	c0.2-0.2,0.4-0.5,0.6-0.7c0,0,0-0.1-0.1-0.1L85.2,189.7z"/>
<path class="st34" d="M80.9,199.2c1.6,0.6,2.7,0.7,2.5,1.2s-1.4,0.4-2.9-0.1C80.6,199.9,80.7,199.6,80.9,199.2z"/>
<path class="st34" d="M80.7,199.8c0.6,0.3,1.2,0.4,1.9,0.4c0.9,0,1.8-0.4,2.4-1c1.3-1.3,0.9-2.7,0.6-3.9c-0.3-1-0.5-1.9,0.3-2.6
	c0.4-0.4,1.1-0.6,1.6-0.4c0.2,0.1,0.4,0.2,0.5,0.4s0.2,0.4,0.3,0.6l0,0c0.1,0.6-0.2,1.1-0.7,1.4c-0.2,0.2-0.6,0.2-0.8,0.1
	c-0.1-0.1-0.2-0.1-0.3-0.2c-0.1-0.1-0.1-0.2-0.1-0.3c0-0.3,0.1-0.6,0.3-0.7c0.1-0.1,0.1-0.3,0-0.4c-0.1-0.1-0.3-0.1-0.4,0
	c-0.4,0.3-0.6,0.7-0.5,1.2c0,0.2,0.1,0.4,0.2,0.5c0.1,0.2,0.3,0.3,0.4,0.4c0.4,0.2,0.9,0.2,1.3-0.1c0.7-0.4,1-1.1,0.9-1.9l0,0
	c-0.1-0.3-0.2-0.6-0.4-0.9c-0.2-0.3-0.4-0.5-0.7-0.6c-0.8-0.3-1.6-0.1-2.2,0.5c-1.1,0.9-0.8,1.9-0.5,3.1s0.6,2.3-0.5,3.4
	c-0.5,0.5-1.3,0.8-2,0.8c-0.6,0-1.2-0.1-1.7-0.4L80.7,199.8z"/>
<ellipse class="st34" cx="140.8" cy="180" rx="1.9" ry="1.4"/>
<path class="st34" d="M142.6,178.3c0.5,0,0.9,0.4,1,0.9c0,0.5-0.4,0.9-0.9,1c-0.5,0-0.9-0.4-1-0.9c0-0.2,0-0.3,0.1-0.4
	C142,178.5,142.3,178.3,142.6,178.3z"/>
<path class="st34" d="M138.9,178.3c-0.5,0-0.9,0.4-1,0.9c0,0.5,0.4,0.9,0.9,1c0.5,0,0.9-0.4,1-0.9c0-0.2,0-0.3-0.1-0.4
	C139.5,178.5,139.2,178.3,138.9,178.3z"/>
<path class="st34" d="M140.8,188.3c-3,0-0.7-3.8-0.5-5.1c0.2-0.7,0.2-1.5,0-2.3c0-0.1,1.2-0.2,1.2-0.4c-0.3,0.8-0.4,1.8-0.1,2.6
	C141.5,184.4,143.8,188.3,140.8,188.3z"/>
<path class="st34" d="M140.6,187.6c-1.3,0-2.1-0.4-2.1,0s1,0.7,2.3,0.7s2.3-0.3,2.3-0.7S141.9,187.6,140.6,187.6z"/>
<path class="st34" d="M140.6,187.6c0.1,0,0.2,0,0.2,0.1s0,0.2-0.1,0.2l0,0c-0.6,0.1-1.2,0-1.7-0.2s-0.8-0.6-1-1.1
	c-0.2-0.8,0.1-1.7,0.7-2.2c0.4-0.4,0.8-0.9,0.5-1.4c-0.1-0.3-0.4-0.6-0.8-0.6c-0.1,0-0.3,0-0.4,0.1c-0.1,0.1-0.2,0.2-0.3,0.3l0,0
	c-0.2,0.3-0.2,0.6,0,0.9c0.1,0.2,0.2,0.2,0.4,0.2c0.1,0,0.1,0,0.2,0c0.1,0,0.1-0.1,0.1-0.1c0.1-0.1,0.1-0.3,0-0.5
	c0-0.1,0-0.2,0.1-0.2l0,0c0.1,0,0.2,0,0.2,0.1c0.1,0.2,0.1,0.5-0.1,0.8c-0.1,0.1-0.2,0.2-0.3,0.2c-0.4,0.2-0.8,0-1-0.3
	c-0.3-0.4-0.3-0.9,0-1.3l0,0c0.1-0.2,0.3-0.3,0.4-0.4c0.2-0.1,0.4-0.1,0.5-0.1c0.5,0.1,0.9,0.4,1,0.8c0.3,0.8-0.1,1.2-0.6,1.8
	c-0.6,0.5-0.8,1.2-0.7,1.9c0.1,0.4,0.5,0.8,0.9,1C139.6,187.7,140.1,187.8,140.6,187.6z"/>
<ellipse class="st34" cx="111" cy="247.7" rx="1.8" ry="1.4"/>
<path class="st34" d="M109.1,246c-0.5,0-0.9,0.4-1,0.9c0,0.5,0.4,0.9,0.9,1c0.5,0,0.9-0.4,1-0.9c0-0.2,0-0.3-0.1-0.4
	C109.7,246.2,109.5,246,109.1,246z"/>
<path class="st34" d="M112.8,246c0.5,0,0.9,0.4,1,0.9c0,0.5-0.4,0.9-0.9,1c-0.5,0-0.9-0.4-1-0.9c0-0.2,0-0.3,0.1-0.4
	C112.2,246.2,112.5,246,112.8,246z"/>
<path class="st34" d="M111,255.9c3,0,0.7-3.8,0.5-5.1c-0.2-0.7-0.2-1.5,0-2.3c0-0.1-1.2-0.2-1.2-0.4c0.3,0.8,0.4,1.8,0.1,2.6
	C110.3,252.1,108,255.9,111,255.9z"/>
<path class="st34" d="M111.1,255.3c1.3,0,2.1-0.4,2.1,0s-1,0.7-2.3,0.7s-2.3-0.3-2.3-0.7S109.9,255.3,111.1,255.3z"/>
<path class="st34" d="M111.1,255.3c-0.1,0-0.2,0.1-0.2,0.2s0.1,0.2,0.2,0.2l0,0c0.6,0.1,1.2,0,1.7-0.2s0.8-0.6,1-1.1
	c0.2-0.8-0.1-1.7-0.7-2.2c-0.4-0.4-0.8-0.9-0.5-1.4c0.1-0.3,0.4-0.6,0.8-0.6c0.1,0,0.3,0,0.4,0.1s0.2,0.2,0.3,0.3l0,0
	c0.2,0.3,0.2,0.6,0,0.9c-0.1,0.2-0.2,0.2-0.4,0.2c-0.1,0-0.1,0-0.2,0s-0.1-0.1-0.2-0.1c-0.1-0.1-0.1-0.3,0-0.5c0-0.1,0-0.2-0.1-0.2
	l0,0c-0.1,0-0.2,0-0.2,0.1c-0.1,0.2-0.1,0.5,0.1,0.8c0.1,0.1,0.2,0.2,0.3,0.2c0.4,0.2,0.8,0,1-0.3c0.3-0.4,0.3-0.9,0-1.3l0,0
	c-0.1-0.2-0.3-0.3-0.4-0.4c-0.2-0.1-0.4-0.1-0.5-0.1c-0.5,0.1-0.9,0.4-1,0.8c-0.3,0.8,0.1,1.2,0.6,1.8c0.6,0.5,0.8,1.2,0.7,1.9
	c-0.1,0.4-0.5,0.8-0.9,1C112.2,255.4,111.6,255.5,111.1,255.3z"/>
<ellipse class="st34" cx="129.5" cy="266.9" rx="3.1" ry="2.3"/>
<path class="st34" d="M132.6,264c0.5,0.7,0.4,1.6-0.2,2.2c-0.2,0.2-0.6,0.3-0.9,0.3c-0.5-0.7-0.4-1.6,0.2-2.2
	C132,264.1,132.3,264,132.6,264z"/>
<path class="st34" d="M126.4,264c-0.5,0.7-0.4,1.6,0.2,2.2c0.2,0.2,0.6,0.3,0.9,0.3c0.5-0.7,0.4-1.6-0.2-2.2
	C127,264.1,126.7,264,126.4,264z"/>
<path class="st34" d="M129.5,280.8c-5.1,0-1.2-6.4-0.9-8.6c0.3-1.3,0.3-2.6,0-3.8c-0.1-0.2,2.1-0.4,2-0.6c-0.5,1.4-0.6,3-0.2,4.5
	C130.7,274.4,134.6,280.8,129.5,280.8z"/>
<path class="st34" d="M129.3,279.7c-2.1,0-3.6-0.7-3.6,0s1.7,1.2,3.8,1.2c2.1,0,3.8-0.5,3.8-1.2S131.4,279.7,129.3,279.7z"/>
<path class="st34" d="M129.3,279.8c0.1,0,0.3,0.1,0.3,0.2l0,0c0,0.1-0.1,0.3-0.2,0.3l0,0c-1,0.2-2,0-2.8-0.4s-1.4-1.1-1.7-1.9
	c-0.5-1.8,0.4-2.8,1.2-3.8c0.7-0.8,1.3-1.5,0.9-2.4c-0.2-0.6-0.7-1-1.3-1.1c-0.2,0-0.4,0-0.7,0.1c-0.2,0.1-0.4,0.3-0.5,0.5l0,0
	c-0.3,0.5-0.3,1.1,0,1.5c0.1,0.2,0.4,0.4,0.7,0.4c0.1,0,0.2,0,0.3-0.1c0.1,0,0.2-0.1,0.3-0.2c0.1-0.2,0.1-0.5,0-0.8
	c-0.1-0.1,0-0.3,0.1-0.3c0.1-0.1,0.3,0,0.3,0.1l0,0c0.2,0.4,0.2,0.9-0.1,1.3c-0.1,0.2-0.3,0.3-0.4,0.4c-0.6,0.3-1.4,0.1-1.7-0.5
	c-0.4-0.6-0.4-1.5,0-2.1l0,0c0.2-0.3,0.4-0.5,0.7-0.6c0.3-0.1,0.6-0.2,0.9-0.2c0.8,0.1,1.5,0.6,1.8,1.4c0.5,1.3-0.2,2.1-1,3
	s-1.6,1.8-1.1,3.3c0.3,0.7,0.8,1.3,1.5,1.6C127.5,279.8,128.4,279.9,129.3,279.8z"/>
<ellipse class="st34" cx="157.8" cy="274" rx="1.9" ry="1.4"/>
<path class="st34" d="M159.7,272.4c0.5,0,0.9,0.4,1,0.9c0,0.5-0.4,0.9-0.9,1c-0.5,0-0.9-0.4-1-0.9c0-0.2,0-0.3,0.1-0.4
	C159.1,272.6,159.4,272.4,159.7,272.4z"/>
<path class="st34" d="M156,272.4c-0.5,0-0.9,0.4-1,0.9c0,0.5,0.4,0.9,0.9,1c0.5,0,0.9-0.4,1-0.9c0-0.2,0-0.3-0.1-0.4
	C156.6,272.6,156.3,272.4,156,272.4z"/>
<path class="st34" d="M157.8,282.3c-3,0-0.7-3.8-0.5-5.1c0.2-0.7,0.2-1.5,0-2.3c0-0.1,1.2-0.2,1.2-0.4c-0.3,0.8-0.4,1.8-0.1,2.6
	C158.5,278.5,160.9,282.3,157.8,282.3z"/>
<path class="st34" d="M157.7,281.7c-1.3,0-2.1-0.4-2.1,0s1,0.7,2.3,0.7s2.3-0.3,2.3-0.7S158.9,281.7,157.7,281.7z"/>
<path class="st34" d="M157.7,281.7c0.1,0,0.2,0.1,0.2,0.2s-0.1,0.2-0.2,0.2c-0.6,0.1-1.2,0-1.7-0.2s-0.8-0.6-1-1.1
	c-0.2-0.8,0.1-1.7,0.7-2.2c0.4-0.5,0.8-0.9,0.5-1.4c-0.1-0.3-0.4-0.6-0.8-0.6c-0.1,0-0.3,0-0.4,0.1c-0.1,0.1-0.2,0.2-0.3,0.3l0,0
	c-0.2,0.3-0.2,0.6,0,0.9c0.1,0.2,0.2,0.2,0.4,0.2c0.1,0,0.1,0,0.2,0c0.1,0,0.1-0.1,0.1-0.1c0.1-0.1,0.1-0.3,0-0.5
	c0-0.1,0-0.2,0.1-0.2l0,0c0.1,0,0.2,0,0.2,0.1c0.1,0.2,0.1,0.5-0.1,0.8c-0.1,0.1-0.2,0.2-0.3,0.2c-0.4,0.2-0.8,0-1-0.3
	c-0.3-0.4-0.3-0.9,0-1.3l0,0c0.1-0.2,0.3-0.3,0.4-0.4c0.2-0.1,0.4-0.1,0.5-0.1c0.5,0.1,0.9,0.4,1,0.8c0.3,0.8-0.1,1.2-0.6,1.8
	c-0.6,0.5-0.8,1.2-0.7,1.9c0.1,0.4,0.5,0.8,0.9,1C156.6,281.8,157.2,281.8,157.7,281.7z"/>
<ellipse class="st34" cx="152.2" cy="230.5" rx="1.9" ry="1.4"/>
<path class="st34" d="M150.4,228.8c-0.5,0-0.9,0.4-1,0.9c0,0.5,0.4,0.9,0.9,1c0.5,0,0.9-0.4,1-0.9c0-0.2,0-0.3-0.1-0.4
	C151,229.1,150.7,228.9,150.4,228.8z"/>
<path class="st34" d="M154.1,228.8c0.5,0,0.9,0.4,1,0.9c0,0.5-0.4,0.9-0.9,1c-0.5,0-0.9-0.4-1-0.9c0-0.2,0-0.3,0.1-0.4
	C153.5,229.1,153.8,228.9,154.1,228.8z"/>
<path class="st34" d="M152.2,238.8c3,0,0.7-3.8,0.5-5.1c-0.2-0.7-0.2-1.5,0-2.3c0-0.1-1.2-0.2-1.2-0.4c0.3,0.8,0.4,1.8,0.1,2.6
	C151.5,235,149.2,238.8,152.2,238.8z"/>
<path class="st34" d="M152.4,238.2c1.3,0,2.1-0.4,2.1,0s-1,0.7-2.3,0.7s-2.3-0.3-2.3-0.7S151.1,238.2,152.4,238.2z"/>
<path class="st34" d="M152.4,238.2c-0.1,0-0.2,0.1-0.2,0.2s0.1,0.2,0.2,0.2c0.6,0.1,1.2,0,1.7-0.2s0.8-0.6,1-1.1
	c0.2-0.8-0.1-1.7-0.7-2.2c-0.4-0.4-0.8-0.9-0.5-1.4c0.1-0.3,0.4-0.6,0.8-0.6c0.1,0,0.3,0,0.4,0.1c0.1,0.1,0.2,0.2,0.3,0.3l0,0
	c0.2,0.3,0.2,0.6,0,0.9c-0.1,0.2-0.2,0.2-0.4,0.2c-0.1,0-0.1,0-0.2,0c-0.1,0-0.1-0.1-0.1-0.1c-0.1-0.1-0.1-0.3,0-0.5
	c0-0.1,0-0.2-0.1-0.2l0,0c-0.1,0-0.2,0-0.2,0.1c-0.1,0.2-0.1,0.5,0.1,0.8c0.1,0.1,0.2,0.2,0.3,0.2c0.4,0.2,0.8,0,1-0.3
	c0.3-0.4,0.3-0.9,0-1.3l0,0c-0.1-0.2-0.3-0.3-0.4-0.4c-0.2-0.1-0.4-0.1-0.5-0.1c-0.5,0.1-0.9,0.4-1,0.8c-0.3,0.8,0.1,1.2,0.6,1.8
	c0.6,0.5,0.8,1.2,0.7,1.9c-0.1,0.4-0.5,0.8-0.9,1C153.5,238.3,152.9,238.3,152.4,238.2z"/>
<ellipse class="st34" cx="107.4" cy="283.1" rx="1.8" ry="1.4"/>
<path class="st34" d="M105.6,281.4c-0.5,0-0.9,0.4-1,0.9c0,0.5,0.4,0.9,0.9,1c0.5,0,0.9-0.4,1-0.9c0-0.2,0-0.3-0.1-0.4
	C106.2,281.6,105.9,281.4,105.6,281.4z"/>
<path class="st34" d="M109.3,281.4c0.5,0,0.9,0.4,1,0.9c0,0.5-0.4,0.9-0.9,1c-0.5,0-0.9-0.4-1-0.9c0-0.2,0-0.3,0.1-0.4
	C108.7,281.6,109,281.4,109.3,281.4z"/>
<path class="st34" d="M107.4,291.4c3,0,0.7-3.8,0.5-5.1c-0.2-0.7-0.2-1.5,0-2.3c0-0.1-1.2-0.2-1.2-0.4c0.3,0.8,0.4,1.8,0.1,2.6
	C106.7,287.5,104.4,291.4,107.4,291.4z"/>
<path class="st34" d="M107.6,290.7c1.3,0,2.1-0.4,2.1,0s-1,0.7-2.3,0.7s-2.3-0.3-2.3-0.7S106.3,290.7,107.6,290.7z"/>
<path class="st34" d="M107.6,290.8c-0.1,0-0.2,0-0.2,0.1s0,0.2,0.1,0.2l0,0c0.6,0.1,1.2,0,1.7-0.2s0.8-0.6,1-1.1
	c0.2-0.8-0.1-1.7-0.7-2.2c-0.4-0.5-0.8-0.9-0.5-1.4c0.1-0.3,0.4-0.6,0.8-0.6c0.1,0,0.3,0,0.4,0.1s0.2,0.2,0.3,0.3l0,0
	c0.2,0.3,0.2,0.6,0,0.9c-0.1,0.2-0.2,0.2-0.4,0.2c-0.1,0-0.1,0-0.2,0s-0.1-0.1-0.2-0.1c-0.1-0.1-0.1-0.3,0-0.5c0-0.1,0-0.2-0.1-0.2
	l0,0c-0.1,0-0.2,0-0.2,0.1c-0.1,0.2-0.1,0.5,0.1,0.8c0.1,0.1,0.2,0.2,0.3,0.2c0.4,0.2,0.8,0,1-0.3c0.3-0.4,0.3-0.9,0-1.3l0,0
	c-0.1-0.2-0.3-0.3-0.4-0.4c-0.2-0.1-0.4-0.1-0.5-0.1c-0.5,0.1-0.9,0.4-1,0.8c-0.3,0.8,0.1,1.2,0.6,1.8c0.6,0.5,0.8,1.2,0.7,1.9
	c-0.1,0.4-0.5,0.8-0.9,1C108.6,290.8,108.1,290.9,107.6,290.8z"/>
<ellipse class="st34" cx="144.1" cy="285.6" rx="1.9" ry="1.4"/>
<path class="st34" d="M142.2,283.9c-0.5,0-0.9,0.4-1,0.9c0,0.5,0.4,0.9,0.9,1c0.5,0,0.9-0.4,1-0.9c0-0.2,0-0.3-0.1-0.4
	C142.8,284.1,142.5,284,142.2,283.9z"/>
<path class="st34" d="M145.9,283.9c0.5,0,0.9,0.4,1,0.9c0,0.5-0.4,0.9-0.9,1c-0.5,0-0.9-0.4-1-0.9c0-0.2,0-0.3,0.1-0.4
	C145.3,284.1,145.6,284,145.9,283.9z"/>
<path class="st34" d="M144.1,293.9c3,0,0.7-3.8,0.5-5.1c-0.2-0.7-0.2-1.5,0-2.3c0-0.1-1.2-0.2-1.2-0.4c0.3,0.8,0.4,1.8,0.1,2.6
	C143.4,290.1,141,293.9,144.1,293.9z"/>
<path class="st34" d="M144.2,293.3c1.3,0,2.1-0.4,2.1,0s-1,0.7-2.3,0.7s-2.3-0.3-2.3-0.7S142.9,293.3,144.2,293.3z"/>
<path class="st34" d="M144.2,293.3c-0.1,0-0.2,0.1-0.2,0.2s0.1,0.2,0.2,0.2c0.6,0.1,1.2,0,1.7-0.2s0.8-0.6,1-1.1
	c0.2-0.8-0.1-1.7-0.7-2.2c-0.4-0.5-0.8-0.9-0.5-1.4c0.1-0.3,0.4-0.6,0.8-0.6c0.1,0,0.3,0,0.4,0.1c0.1,0.1,0.2,0.2,0.3,0.3l0,0
	c0.2,0.3,0.2,0.6,0,0.9c-0.1,0.2-0.2,0.2-0.4,0.2c-0.1,0-0.1,0-0.2,0c-0.1,0-0.1-0.1-0.1-0.1c-0.1-0.1-0.1-0.3,0-0.5
	c0-0.1,0-0.2-0.1-0.2l0,0c-0.1,0-0.2,0-0.2,0.1c-0.1,0.2-0.1,0.5,0.1,0.8c0.1,0.1,0.2,0.2,0.3,0.2c0.4,0.2,0.8,0,1-0.3
	c0.3-0.4,0.3-0.9,0-1.3l0,0c-0.1-0.2-0.3-0.3-0.4-0.4c-0.2-0.1-0.4-0.1-0.5-0.1c-0.5,0.1-0.9,0.4-1,0.8c-0.3,0.8,0.1,1.2,0.6,1.8
	c0.6,0.5,0.8,1.2,0.7,1.9c-0.1,0.4-0.5,0.8-0.9,1C145.3,293.4,144.7,293.4,144.2,293.3z"/>
<path class="st34" d="M168.7,187.1c0.6-0.7,1.6-0.7,2.3-0.1c0.5,0.7,0.3,1.7-0.5,2.2c-0.6,0.7-1.6,0.7-2.3,0.2
	C167.7,188.7,167.9,187.6,168.7,187.1L168.7,187.1z"/>
<path class="st34" d="M169.9,185.7c0.3,0.1,0.6,0.3,0.7,0.6c0.1,0.3,0,0.6-0.2,0.9c-0.3-0.1-0.6-0.3-0.7-0.6
	C169.6,186.2,169.6,185.9,169.9,185.7z"/>
<path class="st34" d="M167.1,188.1c-0.4,0.3-0.5,0.9-0.2,1.3s0.9,0.5,1.3,0.2c0.4-0.3,0.5-0.9,0.2-1.3c-0.1-0.1-0.2-0.2-0.4-0.3
	C167.7,187.9,167.3,187.9,167.1,188.1z"/>
<path class="st34" d="M175.1,194.4c-2.3,2-3.1-2.4-3.8-3.5c-0.4-0.7-0.9-1.3-1.5-1.7c-0.1-0.1,0.8-1,0.7-1.1
	c0.3,0.8,0.9,1.6,1.7,2.1C173.1,191.1,177.4,192.4,175.1,194.4z"/>
<path class="st34" d="M174.6,194c-0.9,0.8-1.9,1.1-1.6,1.4s1.2-0.1,2.2-0.9s1.5-1.7,1.2-2S175.6,193.2,174.6,194z"/>
<path class="st34" d="M174.6,194c0.1-0.1,0.2-0.1,0.2,0c0.1,0.1,0.1,0.2,0,0.2l0,0c-0.4,0.4-0.9,0.8-1.4,0.9
	c-0.5,0.1-1.1,0.1-1.5-0.2c-0.7-0.5-1.1-1.3-0.9-2.1c0-0.6,0-1.1-0.6-1.4c-0.3-0.2-0.7-0.2-1,0c-0.1,0.1-0.2,0.2-0.2,0.3
	s-0.1,0.3-0.1,0.4l0,0c0,0.3,0.3,0.6,0.6,0.7c0.2,0.1,0.3,0,0.5-0.1c0,0,0.1-0.1,0.1-0.2c0-0.1,0-0.1,0-0.2c0-0.2-0.1-0.3-0.3-0.4
	c-0.1,0-0.1-0.1-0.1-0.2c0-0.1,0.1-0.1,0.2-0.1c0.3,0.1,0.4,0.3,0.5,0.6c0,0.1,0,0.2,0,0.3s-0.1,0.2-0.2,0.3
	c-0.2,0.2-0.5,0.2-0.8,0.2c-0.4-0.1-0.8-0.5-0.8-0.9l0,0c0-0.2,0-0.4,0.1-0.5c0.1-0.2,0.2-0.3,0.3-0.4c0.4-0.3,0.9-0.3,1.3-0.1
	c0.7,0.4,0.8,1,0.8,1.7c-0.1,0.7,0.2,1.5,0.8,1.9c0.4,0.2,0.9,0.3,1.3,0.1C173.9,194.7,174.3,194.4,174.6,194z"/>
<path class="st34" d="M97,272c0.9,0.5,1.4,1.5,1.3,2.5c-0.5,1.2-1.7,1.9-3,1.6C95.8,274.8,96.4,273.4,97,272z"/>
<path class="st34" d="M98.9,271.7c0.2,0.5,0.1,1.2-0.2,1.6c-0.4,0.4-0.9,0.6-1.5,0.5c-0.2-0.5-0.2-1.2,0.2-1.6
	C97.8,271.8,98.4,271.6,98.9,271.7z"/>
<path class="st34" d="M91.9,287.3c-0.2-0.1-0.5-0.1-0.7-0.2c1.3-4.1,2.8-8.1,4.5-12.1c0.2,0,0.3,0,0.3-0.1c-0.8,1.3-1.3,2.8-1.3,4.3
	C94.6,281.3,96.8,288.5,91.9,287.3z"/>
<path class="st34" d="M91.9,286.2l-0.4-0.1c-0.1,0.4-0.2,0.7-0.3,1.1l0.7,0.2c2,0.5,3.8,0.4,4-0.3S94,286.7,91.9,286.2z"/>
<path class="st34" d="M91.9,286.2c0.1,0,0.3,0.1,0.3,0.3c0,0.1-0.1,0.3-0.3,0.3l0,0l-0.5-0.1l0.2-0.5L91.9,286.2z"/>
<path class="st35" d="M156.2,166c-3.9,16.9-63.4,139.4-85.9,169.1"/>
<path class="st36" d="M133.8,74.1c-8.5,9.9-19.3,2.8-20.5,14.3s0.3,14.1-6.2,19s-8.1,21.3-4.3,32.9s3.5,18.5-1.1,26.4
	S97,180.1,99.3,188s3.7,12.1-9.8-1.8s-10.3-28.3-5-41.8s2.6-12.4,0.4-27.5S93.4,98.7,97,82.4s23.4-27.5,35.6-20.8
	S137.2,69.9,133.8,74.1z"/>
<path class="st36" d="M129,74.1c8.4,9.9,17.4,4.9,19.9,11.6s5.9,12.8,13.9,17.4s2.8,25.2-1,36.8s-5.3,18.7-0.7,26.6
	c1.2,2,2.4,4,3.5,5.9c5.9,1,12.6,4.6,18.6,9.3c6.5-12.3-0.3-25.9-4.9-37.4c-5.3-13.5-3.1-19.2-0.4-31.4s-8.5-14.3-12.1-30.6
	s-23.4-27.5-35.6-20.8S125.5,69.9,129,74.1z"/>
<path class="st37" d="M133.1,64.3c1.5,6.5,10.3,8.9,15.6,10.6s6.7,5.8,8.4,12.9c1.7,7.4,8.9,10.8,12.6,14.4s-2,25.1-4.8,34.7
	c-2.6,8.9,2.4,22.2,4.8,27.3c1.6,3.4,2.5,7.1,2.5,10.8c0.6,0.3,1.2,0.6,1.7,0.9c1.1-3.9,0.3-8.5-1.7-13.4
	c-3.1-7.4-6.8-12.1-3.9-25.2c3.6-16.6,10.5-28.5,3.4-37.7c-5.7-7.3-9.1-4.7-10.9-12.4c-1.9-8.7-1.8-11.7-9.6-14.3
	S136.2,70.5,133.1,64.3z"/>
<path class="st2" d="M169.2,105.8c-2.3-0.4-4.9,2.9-5.8,7.4s0.1,8.6,2.4,9.1s4.9-2.9,5.8-7.4S171.5,106.3,169.2,105.8z"/>
<path class="st30" d="M125.2,92.9c-2.7-0.2-7.2-0.8-11.2,3.8c-1.8,2.1-1.3,2.8,0.8,0.9c3.5-3.4,6.2-2.8,10.4-2.6
	C126.9,95.1,127,93,125.2,92.9z"/>
<path class="st37" d="M128.6,63.9c-1.5,6.5-10.3,8.9-15.6,10.6s-9.3,5.7-8.3,12.9s-4.3,16.6-8,20.2s-2.6,19.2,0.2,28.9
	c2.6,8.9-2.4,22.2-4.8,27.3c-2.5,5.5-3.8,12.4-0.8,17c-5-4.4-4.8-11.3-1.7-18.8s6.8-12.1,3.9-25.2c-3.7-16.6-6-22.7,1.2-31.9
	c5.7-7.3,7-8.3,6.9-16.9c-0.2-8.9,1.2-13,9-15.6S125.5,70.2,128.6,63.9z"/>
<line class="st38" x1="173.1" y1="362.3" x2="182" y2="363.6"/>
<path class="st1" d="M26.8,181.4"/>
</svg>
