<svg xmlns="http://www.w3.org/2000/svg" viewBox="0 0 950 497.14"><defs><style>.cls-1{fill:#f47920;}.cls-2{fill:#4c5053;}.cls-3{fill:#161b1c;}.cls-4{fill:#2b3133;}.cls-5{fill:#dcddde;}.cls-6{fill:#7b7f83;}.cls-7{fill:#56585b;}.cls-8{fill:#fff;}.cls-9{fill:#fffcf7;}.cls-10{fill:#fbae2a;}.cls-11{fill:#ae551b;}.cls-12{fill:#d7d8da;}.cls-13{fill:#f8981d;}.cls-14{fill:#f1f0f0;}.cls-15{fill:none;stroke:#6d6e70;stroke-linecap:round;stroke-linejoin:round;stroke-width:0.43px;}.cls-16{fill:#6d6e70;}.cls-17{fill:#d8671d;}</style></defs><title>Ресурс 2</title><g id="Слой_2" data-name="Слой 2"><g id="Слой_1-2" data-name="Слой 1"><g id="Слой_2-2" data-name="Слой 2"><g id="Layer_1" data-name="Layer 1"><polygon class="cls-1" points="252.69 43.66 113.37 101.54 97.28 110.12 66.24 263.36 37.27 322.29 424.13 436.93 621.29 431.6 252.69 43.66"/><path class="cls-1" d="M491.34,41.3C496,42.42,858.44,406.5,950,497.14H408.71l-245-262.74L162.67,57.61l5.26-10.36h94.31L242.13,18.1l88.78,32Z"/><path class="cls-1" d="M0,306.86,191.17,497.14H933.8L651.61,306.66,24.32,292.59C1.51,280.76,2.13,284.24,0,306.86Z"/><path class="cls-1" d="M655.94,279.4l69.52,76.1c.12,22.85.35,61.52-1.08,66.78L658,330.95,639.39,289.5Z"/><polygon class="cls-2" points="294.99 223.72 360.57 223.72 391.31 279.4 264.25 279.4 294.99 223.72"/><path class="cls-3" d="M173.23,38H482.29A15.81,15.81,0,0,1,498.1,53.82V222a15.81,15.81,0,0,1-15.81,15.81H173.23A15.81,15.81,0,0,1,157.41,222V53.82A15.83,15.83,0,0,1,173.23,38Z"/><path class="cls-4" d="M498.14,133v89a15.86,15.86,0,0,1-15.81,15.81H266.14L249.59,86.61l12.64-39.36L318.5,45Z"/><rect class="cls-5" x="167.93" y="47.25" width="319.7" height="162.36"/><path class="cls-6" d="M478.92,225.93a2,2,0,1,0-2-2A2.06,2.06,0,0,0,478.92,225.93Z"/><path class="cls-6" d="M470.92,225.93a2,2,0,1,0-2-2A2,2,0,0,0,470.92,225.93Z"/><circle class="cls-6" cx="462.88" cy="223.88" r="2.05"/><path class="cls-6" d="M139.16,262.58H516.39a8.42,8.42,0,0,1,8.43,8.43h0a8.42,8.42,0,0,1-8.43,8.43H139.16a8.42,8.42,0,0,1-8.43-8.43h0A8.42,8.42,0,0,1,139.16,262.58Z"/><path class="cls-3" d="M524.82,271a8.47,8.47,0,0,1-8.43,8.43H139.16a8.47,8.47,0,0,1-8.43-8.43Z"/><path class="cls-7" d="M268.85,262.58H516.43a8.47,8.47,0,0,1,8.43,8.43h0a8.47,8.47,0,0,1-8.43,8.43H270.67Z"/><path d="M524.82,271a8.47,8.47,0,0,1-8.43,8.43H270.67l-.93-8.43Z"/><rect class="cls-8" x="0.19" y="279.4" width="655.75" height="27.22"/><polygon class="cls-8" points="262.24 47.25 323.06 47.25 487.63 127.87 487.63 209.61 263.05 209.61 249.59 86.61 262.24 47.25"/><path class="cls-9" d="M82.05,226.86,103.7,122.23l-11.83-2.44-9.82,47.44V190l14.31-69.21,2.82.58L82.05,204.16Zm-21.65,45,11.83,2.44,9.82-47.44V204.08L67.74,273.3l-2.82-.58,17.13-82.82V167.16Z"/><path class="cls-9" d="M266.3,50.5l-4.52-11.21-75,30.08v4.95l76.71-30.78,1.08,2.67-77.76,31.2v4.95ZM186.84,69.37l-79.5,31.9,4.49,11.21,75-30.08V77.45l-76.71,30.78L109,105.56l77.76-31.2v-5Z"/><path class="cls-10" d="M283,76.44a11.87,11.87,0,1,0-11.87-11.87A11.85,11.85,0,0,0,283,76.44Z"/><path class="cls-9" d="M247.08,8.89a3.79,3.79,0,1,0-3.79-3.79A3.8,3.8,0,0,0,247.08,8.89Z"/><path class="cls-11" d="M247.08,5.14A47.3,47.3,0,0,1,259,0L274.8,19.33c15.74-.58,32.83,8.93,43.42,25.75-11.45,5.76-23.28,12.3-35.23,19.53s-23.24,14.62-33.68,22.08c-9.94-17.17-10.4-36.73-2.55-50.38l-9.78-23A46.66,46.66,0,0,1,247.08,5.14Z"/><circle class="cls-11" cx="99.92" cy="110.76" r="12.72" transform="translate(-49.13 104.64) rotate(-45.59)"/><path class="cls-9" d="M245,32.25c5-7.39,18.06-14.81,27.14-16.16l2.63,3.25c-8.82.46-24.59,9.47-28.07,16.94Z"/><path class="cls-12" d="M99.91,120.18a9.42,9.42,0,1,0-9.43-9.43A9.41,9.41,0,0,0,99.91,120.18Z"/><path class="cls-11" d="M69.68,249.17A30.27,30.27,0,0,1,100,279.44H39.4a30.3,30.3,0,0,1,30.28-30.28Z"/><path class="cls-11" d="M602.66,238c4.91,0,8.85,5.53,8.85,12.37s-4,12.37-8.85,12.37v-4.06c3,0,5.37-3.71,5.37-8.31s-2.4-8.31-5.37-8.31Zm0,24.75c-4.91,0-8.85-5.53-8.85-12.37s4-12.37,8.85-12.37v4.06c-3,0-5.37,3.71-5.37,8.31s2.4,8.31,5.37,8.31Z"/><path class="cls-13" d="M611.55,250.6c-.08,6.73-4,12.14-8.85,12.14s-8.78-5.41-8.85-12.14h3.52c.08,4.49,2.44,8.08,5.37,8.08s5.3-3.6,5.37-8.08Z"/><path class="cls-11" d="M568.05,232h30.2a4.41,4.41,0,0,1,4.41,4.41v38.47a4.41,4.41,0,0,1-4.41,4.41h-30.2a4.41,4.41,0,0,1-4.41-4.41V236.37a4.46,4.46,0,0,1,4.41-4.41Z"/><path class="cls-14" d="M580.42,223.65c-8-28.19,16-30.47-2.71-64.42C586.57,190.47,561.28,197.28,580.42,223.65Z"/><path class="cls-14" d="M591.79,229.49c-6.42-22.62,12.88-24.48-2.2-51.77C596.74,202.81,576.44,208.3,591.79,229.49Z"/><path class="cls-13" d="M602.66,250.6v24.28a4.43,4.43,0,0,1-4.41,4.41h-30.2a4.43,4.43,0,0,1-4.41-4.41V250.6Z"/><path class="cls-15" d="M247.58,173.65l-1.28-3.25h-4.1l-1.28,3.25h-1.2l4-10.25h1l4,10.25ZM246,169.32l-1.2-3.17a13.5,13.5,0,0,1-.46-1.47c-.12.5-.27,1-.43,1.47l-1.2,3.17Zm19.91-4.95a3.38,3.38,0,0,0-2.67,1.12,4.46,4.46,0,0,0-1,3.05,4.83,4.83,0,0,0,.93,3.09,3.34,3.34,0,0,0,2.67,1.08,8.89,8.89,0,0,0,2.44-.39v1a7.61,7.61,0,0,1-2.63.39,4.48,4.48,0,0,1-3.48-1.35,5.66,5.66,0,0,1-1.24-3.87,6,6,0,0,1,.58-2.75,4.29,4.29,0,0,1,1.7-1.82,5.64,5.64,0,0,1,2.63-.66,6.49,6.49,0,0,1,2.82.58l-.5,1a5.08,5.08,0,0,0-2.28-.54Zm13,9.28h-1.2v-4.79h-5.37v4.79h-1.2V163.44h1.2v4.33h5.37v-4.33h1.2v10.21Zm3.36,0V163.44h1.2v10.21Zm12.49,0h-1.35l-5.57-8.55h-.08c.08,1,.12,1.93.12,2.75v5.8h-1.08V163.44h1.35l5.57,8.51h0c0-.12,0-.54-.08-1.2s0-1.16,0-1.47v-5.84h1.12v10.21Zm9,0H298V163.44h5.68v1h-4.49v3.29h4.21v1h-4.21v3.75h4.49v1.08Zm8.58-2.71a2.57,2.57,0,0,1-1,2.09,4.06,4.06,0,0,1-2.67.73,6.81,6.81,0,0,1-2.78-.46v-1.16a7.87,7.87,0,0,0,1.35.43,6.11,6.11,0,0,0,1.47.15,2.93,2.93,0,0,0,1.78-.46,1.46,1.46,0,0,0,.58-1.24,2,2,0,0,0-.19-.85,2.12,2.12,0,0,0-.7-.62,12.73,12.73,0,0,0-1.51-.66,5.22,5.22,0,0,1-2-1.2,2.6,2.6,0,0,1-.62-1.82,2.29,2.29,0,0,1,.89-1.89,3.69,3.69,0,0,1,2.36-.7,7.59,7.59,0,0,1,2.78.54l-.39,1a6.77,6.77,0,0,0-2.47-.54,2.47,2.47,0,0,0-1.47.39,1.43,1.43,0,0,0-.54,1.12,1.76,1.76,0,0,0,.19.89,1.69,1.69,0,0,0,.66.62,6.67,6.67,0,0,0,1.43.62,5.15,5.15,0,0,1,2.2,1.24,2.49,2.49,0,0,1,.66,1.74Zm8.31,2.71h-5.68V163.44h5.68v1h-4.49v3.29h4.21v1h-4.21v3.75h4.49v1.08Z"/><path class="cls-16" d="M247.58,173.65l-1.28-3.25h-4.1l-1.28,3.25h-1.2l4-10.25h1l4,10.25ZM246,169.32l-1.2-3.17a13.5,13.5,0,0,1-.46-1.47c-.12.5-.27,1-.43,1.47l-1.2,3.17Z"/><path class="cls-16" d="M265.87,164.37a3.38,3.38,0,0,0-2.67,1.12,4.46,4.46,0,0,0-1,3.05,4.83,4.83,0,0,0,.93,3.09,3.34,3.34,0,0,0,2.67,1.08,8.89,8.89,0,0,0,2.44-.39v1a7.61,7.61,0,0,1-2.63.39,4.48,4.48,0,0,1-3.48-1.35,5.66,5.66,0,0,1-1.24-3.87,6,6,0,0,1,.58-2.75,4.29,4.29,0,0,1,1.7-1.82,5.64,5.64,0,0,1,2.63-.66,6.49,6.49,0,0,1,2.82.58l-.5,1a5.08,5.08,0,0,0-2.28-.54Z"/><polygon class="cls-16" points="278.82 173.65 277.63 173.65 277.63 168.82 272.29 168.82 272.29 173.65 271.09 173.65 271.09 163.44 272.29 163.44 272.29 167.77 277.63 167.77 277.63 163.44 278.82 163.44 278.82 173.65"/><polygon class="cls-16" points="282.19 173.65 282.19 163.44 283.35 163.44 283.35 173.65 282.19 173.65"/><path class="cls-16" d="M294.68,173.65h-1.35l-5.57-8.55h-.08c.08,1,.12,1.93.12,2.75v5.8h-1.08V163.44h1.35l5.57,8.51h0c0-.12,0-.54-.08-1.2s0-1.16,0-1.47v-5.84h1.12v10.21Z"/><polygon class="cls-16" points="303.73 173.65 298.04 173.65 298.04 163.44 303.73 163.44 303.73 164.49 299.24 164.49 299.24 167.77 303.46 167.77 303.46 168.82 299.24 168.82 299.24 172.57 303.73 172.57 303.73 173.65"/><path class="cls-16" d="M312.31,170.95a2.57,2.57,0,0,1-1,2.09,4.06,4.06,0,0,1-2.67.73,6.81,6.81,0,0,1-2.78-.46v-1.16a7.87,7.87,0,0,0,1.35.43,6.11,6.11,0,0,0,1.47.15,2.93,2.93,0,0,0,1.78-.46,1.46,1.46,0,0,0,.58-1.24,2,2,0,0,0-.19-.85,2.12,2.12,0,0,0-.7-.62,12.73,12.73,0,0,0-1.51-.66,5.22,5.22,0,0,1-2-1.2,2.6,2.6,0,0,1-.62-1.82,2.29,2.29,0,0,1,.89-1.89,3.69,3.69,0,0,1,2.36-.7,7.59,7.59,0,0,1,2.78.54l-.39,1a6.77,6.77,0,0,0-2.47-.54,2.47,2.47,0,0,0-1.47.39,1.43,1.43,0,0,0-.54,1.12,1.76,1.76,0,0,0,.19.89,1.69,1.69,0,0,0,.66.62,6.67,6.67,0,0,0,1.43.62,5.15,5.15,0,0,1,2.2,1.24,2.56,2.56,0,0,1,.66,1.74Z"/><polygon class="cls-16" points="320.62 173.65 314.94 173.65 314.94 163.44 320.62 163.44 320.62 164.49 316.14 164.49 316.14 167.77 320.35 167.77 320.35 168.82 316.14 168.82 316.14 172.57 320.62 172.57 320.62 173.65"/><path class="cls-1" d="M417.1,108.92H334.85V178.1H417.1c2.82,0,5.14-1.93,5.14-4.25V113.18c0-2.36-2.32-4.25-5.14-4.25Z"/><polygon class="cls-17" points="338.68 108.92 414.74 178.14 334.74 178.06 322.29 125.43 338.68 108.92"/><path class="cls-8" d="M413.69,158.73c-.15-.66-.27-1.28-.43-1.82a12.56,12.56,0,0,1-.31-1.66c-.08-.54-.19-1.16-.27-1.78s-.19-1.39-.31-2.2h-.66l-.08,6.34a1.94,1.94,0,0,1-.5.19,2.68,2.68,0,0,1-.77.12c-.31,0-.73,0-1.24.08s-1.12,0-1.89,0a6.06,6.06,0,0,1-1.66-.15,1.52,1.52,0,0,1-1-.66,3.13,3.13,0,0,1-.46-1.39,17.14,17.14,0,0,1-.12-2.44v-4.25c0-.43,0-.81.08-1.24a9.67,9.67,0,0,1,.19-1.12,8.69,8.69,0,0,1,.31-.93.54.54,0,0,0,.08-.43.75.75,0,0,0-.19-.35l-.93-.81,8.31-.93c.23,0,.35-.08.35-.19a.38.38,0,0,0-.23-.35l-1.7-1.31c-.5.19-1,.39-1.59.54s-1.31.35-2.2.5-1.93.31-3.17.46-2.75.35-4.52.54-3.83.39-6.26.62l1.66,1.55a12.36,12.36,0,0,1,1.62-.39c.66-.15,1.39-.27,2.2-.39a19.22,19.22,0,0,1-1.12,6.46,17.48,17.48,0,0,1-3.29,5.53,20.69,20.69,0,0,1-5.37,4.33l.35.58a22.93,22.93,0,0,0,5.07-3,15.22,15.22,0,0,0,3.48-3.91,16.8,16.8,0,0,0,2-5c.12-.5.19-.93.31-1.31a4.53,4.53,0,0,1,.35-.93c.12-.27.23-.5.35-.73a.7.7,0,0,0,0-.77l-1-1.31,3.21-.39a4.13,4.13,0,0,1,.12,1c0,.39,0,.85.08,1.43s0,1.24,0,2v4.91a18.27,18.27,0,0,0,.19,2.9,4.08,4.08,0,0,0,.73,1.86,2.65,2.65,0,0,0,1.43,1,8,8,0,0,0,2.36.27c1,0,1.82,0,2.55,0s1.31,0,1.86-.12,1.08-.12,1.59-.23a.54.54,0,0,0,.39-.19,3.16,3.16,0,0,0,0-.54ZM393,130.89c.15-.15.23-.27.23-.39s-.08-.23-.27-.39l-1.78-1.51-.93,1.47-4.25.54-1.43-2.82L384,128c.12.54.19,1.16.27,1.86s.12,1.39.19,2.2.08,1.59.08,2.44v17.79c0,.81,0,1.51,0,2a8.92,8.92,0,0,1-.12,1.43,3.26,3.26,0,0,1-.31,1,3.9,3.9,0,0,1-.46.89l1.7,2.86a.31.31,0,0,0,.31.19c.12,0,.19-.12.31-.27a2.5,2.5,0,0,0,.15-.73c0-.31.08-.77.12-1.35s0-1.35,0-2.24V132l4.25-.5-1.82,6.07a9.86,9.86,0,0,1,1.43,2.36,9.06,9.06,0,0,1,.7,2.47,6.91,6.91,0,0,1,0,2.36,6,6,0,0,1-.7,2l-2.71-2-.46.5c.39.43.73.85,1.08,1.31s.7.89,1,1.31a8.86,8.86,0,0,1,.77,1.2.62.62,0,0,0,.35.27.41.41,0,0,0,.35-.19,9.32,9.32,0,0,0,1.82-3.79,7.58,7.58,0,0,0-.12-3.94,11.19,11.19,0,0,0-2.2-4c.43-1.2.77-2.2,1.08-3s.54-1.39.77-1.86a6,6,0,0,1,.62-1.08,1.41,1.41,0,0,1,.54-.66Zm14.46,7.35L406,137.15a7,7,0,0,1-.81.31,10.45,10.45,0,0,1-1.2.31c-.5.12-1.12.19-1.86.31s-1.66.23-2.75.39-2.36.31-3.87.5l2,1.51c.43-.12.85-.19,1.24-.31a10.44,10.44,0,0,1,1.35-.27c.5-.08,1-.19,1.7-.27s1.43-.19,2.32-.31l3.17-.43c.23,0,.39-.12.39-.23a.53.53,0,0,0-.23-.43Zm4.76-6.38-2.2-1.93-1,1.62-13.38,1.86a14,14,0,0,0-.08-1.78c-.08-.62-.12-1.24-.19-1.93l-.7,0a18.85,18.85,0,0,1-.27,3.29,9.4,9.4,0,0,1-.66,2.32,4.14,4.14,0,0,1-1,1.35l.81,2.4c.08.19.15.31.27.31s.23-.12.39-.35a7.78,7.78,0,0,0,.89-2,8.27,8.27,0,0,0,.43-2.17L409,133l-1.24,4,.62.31a21.06,21.06,0,0,1,1.51-2.55,9.72,9.72,0,0,1,1.24-1.59,3.22,3.22,0,0,1,1-.73c.15-.08.23-.15.23-.27a.35.35,0,0,0-.15-.31ZM404.1,129l-3.63-4.41-.46.39,2.44,6a.48.48,0,0,0,.31.31c.12,0,.23,0,.35-.19a5.66,5.66,0,0,0,.35-.5c.12-.23.23-.43.35-.66s.19-.58.31-1ZM374,148l-2-1.62a9.85,9.85,0,0,1-2.09.58c-1,.19-2.32.35-4,.54s-3.79.35-6.3.54a3.59,3.59,0,0,0-.15-.5c-.08-.15-.12-.31-.19-.46q1.74-1.57,3-2.67c.85-.73,1.59-1.31,2.17-1.78a17,17,0,0,1,1.51-1.08,8.31,8.31,0,0,1,1-.54.4.4,0,0,0,.23-.19c0-.08,0-.15-.15-.23l-1.66-1.74-1.47,1.35-14.81,1.51,2.24,1.66c.35-.08.81-.19,1.43-.31s1.35-.23,2.28-.35l3.33-.43c1.28-.15,2.82-.35,4.6-.54l-4.06,4.56c-.12-.27-.31-.54-.46-.85a5.53,5.53,0,0,0-.54-.77l-.66.31a8.39,8.39,0,0,1,.58,1.35,13.89,13.89,0,0,1,.46,1.82l-14.77,1.12L345.6,151c.39-.08.85-.15,1.47-.23s1.28-.19,2-.31,1.55-.19,2.4-.31,1.66-.19,2.51-.31,1.66-.19,2.44-.27,1.47-.15,2.09-.19a20.44,20.44,0,0,1,.23,3.09q0,1.45-.12,2.9-.12,1.16-.35,2.32a4.32,4.32,0,0,1-.46,1.35L353,156.41l-.27.43c.77.62,1.47,1.2,2,1.7a17.87,17.87,0,0,1,1.47,1.35c.39.43.77.77,1.12,1.12a12.44,12.44,0,0,1,.93,1.08.41.41,0,0,0,.35.19.33.33,0,0,0,.27-.15,8.79,8.79,0,0,0,1-2.32,16.25,16.25,0,0,0,.5-3.05,27.38,27.38,0,0,0,0-3.56,25.8,25.8,0,0,0-.5-3.87l14-.81c.23,0,.31-.08.35-.15s-.08-.19-.27-.35Zm.54-12.33c.12,0,.15-.15.19-.23a.39.39,0,0,0-.19-.31l-1.93-1.74-1.24,1.55-8,.66c.73-1.39,1.35-2.59,1.86-3.52s1-1.7,1.31-2.28a10.11,10.11,0,0,1,.93-1.31,5.28,5.28,0,0,1,.66-.66.39.39,0,0,0,.19-.31.41.41,0,0,0,0-.31l-1.89-2.67-.54.19a4.2,4.2,0,0,1,0,1.39,9.34,9.34,0,0,1-.5,2c-.27.81-.66,1.86-1.2,3.09s-1.24,2.71-2.09,4.41L347,136.92V136a9.43,9.43,0,0,0,0-1c0-.35,0-.73-.08-1.08l-.77,0a15.66,15.66,0,0,1-.46,3.25,9.08,9.08,0,0,1-.89,2.2,6.14,6.14,0,0,1-1.08,1.39l.89,2.4a.56.56,0,0,0,.23.27c.08,0,.19,0,.27-.23a10,10,0,0,0,.73-1.43c.23-.54.43-1.12.62-1.7a14,14,0,0,0,.39-1.74l24.17-2-2,3.83.58.39,1.86-2.17q.75-.87,1.28-1.39a10.14,10.14,0,0,1,1-.85,3,3,0,0,0,1-.46Zm-19.91-3.91-4.83-5.1-.5.43,4.06,7.93c.08.15.19.23.31.19a.41.41,0,0,0,.27-.23,6.14,6.14,0,0,0,.27-.77,8.16,8.16,0,0,0,.23-1.12c0-.43.12-.85.19-1.31Zm6.38-1-4.14-6.11-.5.23,2.75,8.66c.08.15.12.23.23.23s.19-.08.27-.19c.27-.43.5-.85.73-1.28s.46-1,.66-1.55Z"/><path class="cls-13" d="M236.91,89.09h96.36l16.55,69H236.91a4.24,4.24,0,0,1-4.25-4.25V93.34a4.29,4.29,0,0,1,4.25-4.25Z"/><path class="cls-8" d="M255.74,106.33h-.27l-5.57,23.55h11.45Zm-6.88,28.27-3,12.1h-6.07l11.45-47.13H260l11.48,47.13h-6.07l-3-12.1Z"/><path class="cls-8" d="M289.61,147.4a16,16,0,0,1-6.3-1.16,10.38,10.38,0,0,1-4.64-3.91,20.67,20.67,0,0,1-2.9-7.42,58.39,58.39,0,0,1-1-11.75,58.66,58.66,0,0,1,1-11.75,21.61,21.61,0,0,1,2.78-7.42,10.16,10.16,0,0,1,4.45-3.91,14.81,14.81,0,0,1,5.92-1.16,41.75,41.75,0,0,1,5.8.39,26.48,26.48,0,0,1,4.29.93v3h-8.78a8.37,8.37,0,0,0-3.75.89,7.62,7.62,0,0,0-3,3.13,18.57,18.57,0,0,0-2,6.11,51.43,51.43,0,0,0-.7,9.74,54.59,54.59,0,0,0,.73,9.74,19.74,19.74,0,0,0,2,6.11,7.3,7.3,0,0,0,3.17,3.13,10.2,10.2,0,0,0,4.14.89h8.78v3a23.62,23.62,0,0,1-4.29.93,41.75,41.75,0,0,1-5.8.39Z"/><path class="cls-8" d="M318,106.33h-.27l-5.57,23.55H323.6Zm-6.84,28.27-3,12.1h-6.07l11.45-47.13h8.74l11.45,47.13h-6.07l-3-12.1Z"/><polygon class="cls-11" points="349.86 158.07 334.74 178.06 329.67 158.07 349.86 158.07"/><path class="cls-15" d="M352.14,104.86l-1.28-3.25h-4.1l-1.28,3.25h-1.2l4-10.25h1l4,10.25Zm-1.62-4.33-1.2-3.17a13.5,13.5,0,0,1-.46-1.47c-.12.5-.27,1-.43,1.47l-1.2,3.17Zm8.89-5a3.38,3.38,0,0,0-2.67,1.12,4.46,4.46,0,0,0-1,3.05,4.76,4.76,0,0,0,.93,3.09,3.34,3.34,0,0,0,2.67,1.08,8.67,8.67,0,0,0,2.44-.39v1a7.61,7.61,0,0,1-2.63.39,4.48,4.48,0,0,1-3.48-1.35,5.66,5.66,0,0,1-1.24-3.87A6,6,0,0,1,355,97a4.29,4.29,0,0,1,1.7-1.82,5.64,5.64,0,0,1,2.63-.66,6.49,6.49,0,0,1,2.82.58l-.5,1a5.65,5.65,0,0,0-2.28-.54Zm11.6,9.28-1.28-3.25h-4.06l-1.28,3.25h-1.2l4-10.25h1l4,10.25Zm-1.62-4.29-1.2-3.17a13.5,13.5,0,0,1-.46-1.47c-.12.5-.27,1-.43,1.47l-1.2,3.17Zm13-.89a5.22,5.22,0,0,1-1.35,3.87,5.48,5.48,0,0,1-3.94,1.35h-2.82V94.66h3.13A5,5,0,0,1,381.06,96a5,5,0,0,1,1.28,3.67Zm-1.24,0a4.24,4.24,0,0,0-1-3,3.92,3.92,0,0,0-3-1h-1.74v8.16h1.43a4.45,4.45,0,0,0,3.21-1,4.08,4.08,0,0,0,1.08-3.09Zm9.78,5.14H385.2V94.66h5.68v1H386.4V99h4.21v1H386.4v3.75h4.49v1Zm7.35,0-3.48-9h-.08a24.68,24.68,0,0,1,.12,2.55v6.5H393.7V94.66h1.78l3.25,8.43h0L402,94.66h1.78v10.21h-1.2V98.29c0-.77,0-1.59.12-2.47h0l-3.48,9Zm11.52-5.07,2.71-5.1h1.28l-3.4,6.23v3.94h-1.2v-3.91l-3.4-6.3H407l2.71,5.14Z"/><path class="cls-16" d="M352.14,104.86l-1.28-3.25h-4.1l-1.28,3.25h-1.2l4-10.25h1l4,10.25Zm-1.62-4.33-1.2-3.17a13.5,13.5,0,0,1-.46-1.47c-.12.5-.27,1-.43,1.47l-1.2,3.17Z"/><path class="cls-16" d="M359.41,95.58a3.38,3.38,0,0,0-2.67,1.12,4.46,4.46,0,0,0-1,3.05,4.76,4.76,0,0,0,.93,3.09,3.34,3.34,0,0,0,2.67,1.08,8.67,8.67,0,0,0,2.44-.39v1a7.61,7.61,0,0,1-2.63.39,4.48,4.48,0,0,1-3.48-1.35,5.66,5.66,0,0,1-1.24-3.87A6,6,0,0,1,355,97a4.29,4.29,0,0,1,1.7-1.82,5.64,5.64,0,0,1,2.63-.66,6.49,6.49,0,0,1,2.82.58l-.5,1a5.08,5.08,0,0,0-2.28-.54Z"/><path class="cls-16" d="M371,104.86l-1.28-3.25h-4.1l-1.28,3.25h-1.2l4-10.25h1l4,10.25Zm-1.62-4.33-1.2-3.17a13.5,13.5,0,0,1-.46-1.47c-.12.5-.27,1-.43,1.47l-1.2,3.17Z"/><path class="cls-16" d="M382.34,99.64a5.22,5.22,0,0,1-1.35,3.87,5.42,5.42,0,0,1-3.94,1.35h-2.82V94.66h3.13A5,5,0,0,1,381.06,96a5.12,5.12,0,0,1,1.28,3.67Zm-1.24,0a4.24,4.24,0,0,0-1-3,3.92,3.92,0,0,0-3-1h-1.74v8.16h1.43a4.45,4.45,0,0,0,3.21-1,4,4,0,0,0,1.08-3.09Z"/><polygon class="cls-16" points="390.88 104.86 385.2 104.86 385.2 94.66 390.88 94.66 390.88 95.7 386.36 95.7 386.36 98.99 390.61 98.99 390.61 100.03 386.36 100.03 386.36 103.82 390.88 103.82 390.88 104.86"/><path class="cls-16" d="M398.19,104.86l-3.48-9h-.08a24.68,24.68,0,0,1,.12,2.55v6.5h-1.08V94.66h1.78l3.25,8.43h0L402,94.66h1.78v10.21h-1.2V98.29c0-.77,0-1.59.12-2.47h0l-3.48,9Z"/><polygon class="cls-16" points="409.75 99.76 412.46 94.66 413.73 94.66 410.33 100.92 410.33 104.86 409.13 104.86 409.13 100.96 405.73 94.66 407.04 94.66 409.75 99.76"/></g></g></g></g></svg>